<?xml version="1.0" encoding="UTF-8"?>
<svg version="1.1" xmlns="http://www.w3.org/2000/svg" width="32" height="32">
<path d="M0 0 C2.3125 1 2.3125 1 4 3 C5.9943338 9.00579378 6 14.72610401 6 21 C5.34 21 4.68 21 4 21 C3.34 22.32 2.68 23.64 2 25 C1.34 25 0.68 25 0 25 C-0.33 25.66 -0.66 26.32 -1 27 C-3.66666667 27 -6.33333333 27 -9 27 C-10.66965451 27.31802943 -12.33678518 27.64984951 -14 28 C-14.99 26.35 -15.98 24.7 -17 23 C-17.66 23.66 -18.32 24.32 -19 25 C-19.99 25 -20.98 25 -22 25 C-22 16.75 -22 8.5 -22 0 C-18 2 -18 2 -16 4 C-15.5875 3.484375 -15.175 2.96875 -14.75 2.4375 C-14.1725 1.963125 -13.595 1.48875 -13 1 C-10.8125 1.3125 -10.8125 1.3125 -9 2 C-9 1.34 -9 0.68 -9 0 C-5.84876177 -1.57561912 -3.37430208 -0.69813146 0 0 Z M4 14 C5 16 5 16 5 16 Z " fill="#D5838B" transform="translate(22,4)"/>
<path d="M0 0 C2.9719385 1.12451727 5.33440687 2.22293791 8 4 C8.73046875 6.0234375 8.73046875 6.0234375 9.1875 8.375 C9.34605469 9.14585938 9.50460938 9.91671875 9.66796875 10.7109375 C10.21002505 14.44793742 10 18.2289413 10 22 C9.34 22 8.68 22 8 22 C7.34 23.32 6.68 24.64 6 26 C5.34 26 4.68 26 4 26 C3.67 26.66 3.34 27.32 3 28 C0.1875 28.25 0.1875 28.25 -3 28 C-4.75 26.1875 -4.75 26.1875 -6 24 C-6.66 23.01 -7.32 22.02 -8 21 C-8 20.34 -8 19.68 -8 19 C-6.35 18.67 -4.7 18.34 -3 18 C-2.67 16.68 -2.34 15.36 -2 14 C-1.01 14.33 -0.02 14.66 1 15 C0.34 15 -0.32 15 -1 15 C-1 15.99 -1 16.98 -1 18 C2.12886338 16.92108159 3.02646902 15.95941417 4.875 13.125 C6.32447528 10.15298702 6.32447528 10.15298702 5.1875 7.8125 C4.795625 7.214375 4.40375 6.61625 4 6 C4 5.01 4 4.02 4 3 C2.68 2.34 1.36 1.68 0 1 C0 0.67 0 0.34 0 0 Z M8 15 C9 17 9 17 9 17 Z " fill="#61292E" transform="translate(18,3)"/>
<path d="M0 0 C2.79512309 1.06872353 4.23384979 2.51610332 6.125 4.8125 C6.125 5.8025 6.125 6.7925 6.125 7.8125 C6.785 8.4725 7.445 9.1325 8.125 9.8125 C7.36766726 11.1535477 6.59367264 12.48519781 5.8125 13.8125 C5.38324219 14.555 4.95398437 15.2975 4.51171875 16.0625 C4.05410156 16.64 3.59648437 17.2175 3.125 17.8125 C2.135 17.8125 1.145 17.8125 0.125 17.8125 C0.125 16.8225 0.125 15.8325 0.125 14.8125 C0.785 14.8125 1.445 14.8125 2.125 14.8125 C2.125 13.8225 2.125 12.8325 2.125 11.8125 C1.135 12.3075 1.135 12.3075 0.125 12.8125 C-0.535 12.1525 -1.195 11.4925 -1.875 10.8125 C-2.865 11.4725 -3.855 12.1325 -4.875 12.8125 C-5.1225 12.19375 -5.37 11.575 -5.625 10.9375 C-7.08128639 8.46181313 -8.25312506 7.86124998 -10.875 6.8125 C-9.885 5.1625 -8.895 3.5125 -7.875 1.8125 C-6.555 2.1425 -5.235 2.4725 -3.875 2.8125 C-3.875 2.1525 -3.875 1.4925 -3.875 0.8125 C-1.875 -0.1875 -1.875 -0.1875 0 0 Z " fill="#BE666E" transform="translate(16.875,3.1875)"/>
<path d="M0 0 C2.9719385 1.12451727 5.33440687 2.22293791 8 4 C8.73046875 6.0234375 8.73046875 6.0234375 9.1875 8.375 C9.34605469 9.14585938 9.50460938 9.91671875 9.66796875 10.7109375 C10.25853316 14.78235803 10.19406746 17.53568295 8 21 C7.01 21.66 6.02 22.32 5 23 C3.93983585 18.99493545 4.2091824 16.04195662 5 12 C5 9.35945505 4.64892216 7.51457338 4 5 C4 4.34 4 3.68 4 3 C2.68 2.34 1.36 1.68 0 1 C0 0.67 0 0.34 0 0 Z M8 15 C9 17 9 17 9 17 Z " fill="#6A292F" transform="translate(18,3)"/>
<path d="M0 0 C0.66 1.32 1.32 2.64 2 4 C3.32 3.67 4.64 3.34 6 3 C6.33 3.99 6.66 4.98 7 6 C6.34 6 5.68 6 5 6 C4.34 7.32 3.68 8.64 3 10 C2.34 10 1.68 10 1 10 C0.67 10.66 0.34 11.32 0 12 C-0.99 12 -1.98 12 -3 12 C-3 11.01 -3 10.02 -3 9 C-3.66 8.67 -4.32 8.34 -5 8 C-4.01 8 -3.02 8 -2 8 C-1.34 6.35 -0.68 4.7 0 3 C-1.32 3.33 -2.64 3.66 -4 4 C-4 3.34 -4 2.68 -4 2 C-2.68 1.34 -1.36 0.68 0 0 Z " fill="#471D21" transform="translate(21,19)"/>
<path d="M0 0 C1.32 0.66 2.64 1.32 4 2 C3.34 2 2.68 2 2 2 C2.33 2.99 2.66 3.98 3 5 C3.66 4.67 4.32 4.34 5 4 C5.33 5.65 5.66 7.3 6 9 C5.01 9.66 4.02 10.32 3 11 C2.7525 10.38125 2.505 9.7625 2.25 9.125 C0.79371361 6.64931313 -0.37812506 6.04874998 -3 5 C-2.01 3.35 -1.02 1.7 0 0 Z " fill="#81363D" transform="translate(9,5)"/>
<path d="M0 0 C1.32 1.65 2.64 3.3 4 5 C2.68 6.32 1.36 7.64 0 9 C-0.84454356 5.62182575 -1.10844919 3.32534757 0 0 Z " fill="#893840" transform="translate(23,17)"/>
<path d="M0 0 C0.78375 0.515625 1.5675 1.03125 2.375 1.5625 C3.24125 2.036875 4.1075 2.51125 5 3 C5.66 2.67 6.32 2.34 7 2 C6.67 2.99 6.34 3.98 6 5 C4.35 5 2.7 5 1 5 C0.67 3.35 0.34 1.7 0 0 Z " fill="#F3CDCF" transform="translate(13,12)"/>
</svg>
