<?xml version="1.0" encoding="UTF-8"?>
<svg version="1.1" xmlns="http://www.w3.org/2000/svg" width="1400" height="1400">
<path d="M0 0 C9.81384507 6.1729582 14.72835677 13.16197836 19.50390625 23.64453125 C19.88160156 24.258125 20.25929688 24.87171875 20.6484375 25.50390625 C23.86627218 33.5558396 22.08446125 45.49823624 18.77734375 53.21484375 C16.65495072 57.26431758 14.21672182 60.97030576 11.50390625 64.64453125 C10.92640625 65.53140625 10.34890625 66.41828125 9.75390625 67.33203125 C2.93093537 74.3445291 -6.89003411 78.57962557 -16.6171875 79.078125 C-18.38924184 79.09512626 -20.16151523 79.09629084 -21.93359375 79.08203125 C-22.81080078 79.10201172 -23.68800781 79.12199219 -24.59179688 79.14257812 C-31.27778125 79.13765109 -36.47620985 77.49384046 -42.49609375 74.64453125 C-43.04583862 75.39790771 -43.04583862 75.39790771 -43.60668945 76.16650391 C-55.94213738 93.04861592 -55.94213738 93.04861592 -62.43359375 101.20703125 C-65.96173253 105.6424595 -69.29456833 110.15840425 -72.5 114.83203125 C-76.79181076 120.87920101 -81.38078868 126.71102052 -85.90771484 132.58300781 C-87.33223971 134.43186855 -88.75310841 136.28343807 -90.171875 138.13671875 C-93.58201631 142.58711727 -96.99964704 147.02875421 -100.48828125 151.41796875 C-100.98956543 152.05001221 -101.49084961 152.68205566 -102.00732422 153.33325195 C-102.97446855 154.55050888 -103.94467942 155.76533792 -104.91845703 156.97729492 C-107.44558233 160.15429509 -107.44558233 160.15429509 -109.49609375 163.64453125 C-111.05902676 166.77039727 -113.3170997 169.36997857 -115.49609375 172.08203125 C-116.49792572 173.3433293 -117.49921668 174.60505723 -118.5 175.8671875 C-119.00418457 176.50156738 -119.50836914 177.13594727 -120.02783203 177.78955078 C-129.41273867 189.64630513 -138.55366298 201.7354183 -147.37109375 214.01953125 C-150.83935623 218.8206384 -154.46977278 223.48251907 -158.12109375 228.14453125 C-163.03829078 234.42493778 -167.84700354 240.77095033 -172.55859375 247.20703125 C-179.61941444 256.85141459 -186.86683736 266.34362617 -194.16503906 275.80908203 C-199.69989037 282.99025446 -205.21572767 290.16598203 -210.43359375 297.58203125 C-215.96503149 305.43847446 -221.90807605 312.9683258 -227.8359375 320.52734375 C-235.41310062 330.04930942 -235.41310062 330.04930942 -242.37109375 340.01953125 C-245.48688821 344.82450642 -249.09058979 349.19807339 -252.6887207 353.64404297 C-260.48249336 363.30053088 -267.80202967 373.31388455 -275.12109375 383.33203125 C-279.21243957 388.93216019 -283.39325516 394.45543151 -287.63671875 399.94140625 C-296.45784799 411.3487011 -305.21112308 422.80748023 -313.69726562 434.46655273 C-316.94945249 438.92604653 -320.28882917 443.31040082 -323.66650391 447.67529297 C-330.18858545 456.11187985 -336.57678234 464.65192102 -342.87890625 473.25390625 C-344.04288818 474.84250696 -345.20695141 476.43104809 -346.37109375 478.01953125 C-346.94802979 478.80682617 -347.52496582 479.59412109 -348.11938477 480.40527344 C-352.94386386 486.95903073 -357.91459787 493.39098017 -362.96630859 499.77099609 C-367.10478289 504.95910048 -367.10478289 504.95910048 -370.49609375 510.64453125 C-369.7850048 513.06223368 -368.86815794 514.28864377 -367.05859375 516.01953125 C-364.54711313 518.6314711 -362.49609375 521.96068809 -362.49609375 525.64453125 C-361.83609375 525.64453125 -361.17609375 525.64453125 -360.49609375 525.64453125 C-359.84776485 527.87297339 -359.20253006 530.10231585 -358.55859375 532.33203125 C-358.01912109 534.19408203 -358.01912109 534.19408203 -357.46875 536.09375 C-353.22076353 551.60145964 -355.53648253 565.6594202 -360.49609375 580.64453125 C-361.15609375 580.64453125 -361.81609375 580.64453125 -362.49609375 580.64453125 C-362.73714844 581.51464844 -362.97820313 582.38476562 -363.2265625 583.28125 C-367.89786696 595.6566135 -380.49727168 604.3219104 -391.87109375 610.01953125 C-405.35530878 615.43308351 -418.55654271 615.53761702 -432.49609375 612.64453125 C-441.3420069 629.11843192 -449.67529598 645.84851956 -458.02709961 662.57617188 C-460.02509362 666.57783804 -462.02665815 670.57770546 -464.02931881 674.57703781 C-465.608794 677.73230898 -467.18629812 680.88856269 -468.76327705 684.04508209 C-469.49881491 685.51680789 -470.23490841 686.98825616 -470.97166252 688.45937347 C-474.72632004 695.95917098 -478.42861128 703.4790707 -482.02085972 711.05817032 C-490.28719349 728.48713467 -498.97182645 745.70688901 -507.61508179 762.9509697 C-509.96321666 767.63710162 -512.30865061 772.32458494 -514.65429688 777.01196289 C-521.10225758 789.89595103 -527.55426972 802.77790916 -534.00634766 815.65983582 C-539.92981012 827.48645933 -545.85236544 839.31353497 -551.77165985 851.14224529 C-554.09399906 855.78280568 -556.41717468 860.42294307 -558.74243164 865.06204224 C-570.92809554 889.34374653 -570.92809554 889.34374653 -582.75529194 913.80123234 C-587.77729617 924.38766093 -593.03828335 934.85382365 -598.2890625 945.328125 C-599.37211015 947.49234807 -600.45497698 949.65666165 -601.53767395 951.82106018 C-604.34530867 957.4325677 -607.15534594 963.04286851 -609.96594238 968.65289307 C-612.85053561 974.41172689 -615.73277624 980.17173792 -618.61523438 985.93164062 C-624.23992813 997.17040286 -629.86716906 1008.40788754 -635.49609375 1019.64453125 C-634.70912109 1020.42755615 -633.92214844 1021.21058105 -633.11132812 1022.01733398 C-623.95602297 1031.21451833 -617.99780396 1041.49872133 -617.4296875 1054.703125 C-617.71762724 1067.4571619 -622.29571502 1077.19094187 -631.0546875 1086.3828125 C-639.2086404 1093.93663447 -648.72593284 1097.42591008 -659.828125 1097.73828125 C-673.3714703 1097.09565514 -683.6865604 1092.19565777 -692.80859375 1082.20703125 C-699.84796443 1073.51019101 -702.99602673 1062.86565137 -702.3203125 1051.75390625 C-700.8812693 1040.64856273 -695.96736194 1030.12804287 -687.49609375 1022.64453125 C-684.30200302 1020.31528568 -681.03081791 1018.40914471 -677.49609375 1016.64453125 C-676.82191406 1016.30292969 -676.14773438 1015.96132812 -675.453125 1015.609375 C-667.67504742 1012.37477794 -655.48407409 1012.04476862 -647.49609375 1014.64453125 C-647.21963988 1013.76644523 -646.94318602 1012.8883592 -646.65835476 1011.98366451 C-645.58832471 1008.90950741 -644.35782955 1006.12417231 -642.8999176 1003.21839905 C-642.11187996 1001.64036751 -642.11187996 1001.64036751 -641.30792236 1000.03045654 C-640.73394714 998.8912677 -640.15997192 997.75207886 -639.56860352 996.57836914 C-638.95527195 995.35390979 -638.34230036 994.12927007 -637.72966003 992.90446472 C-636.41154269 990.27115773 -635.0909143 987.63913123 -633.76831245 985.00807381 C-631.66492713 980.82370987 -629.56731791 976.63646697 -627.47044373 972.44883728 C-624.13983725 965.79900466 -620.80550671 959.1510476 -617.46953005 952.50390762 C-611.53134406 940.67167529 -605.59733804 928.83734923 -599.66783565 917.00076288 C-597.59521883 912.8637946 -595.52030325 908.7279903 -593.44357222 904.59308594 C-587.627237 893.00952529 -581.82492428 881.42414071 -576.27709961 869.70874023 C-568.57247683 853.45711689 -560.43582877 837.41597842 -552.37710571 821.3380928 C-550.02897084 816.65196088 -547.68353689 811.96447756 -545.33789062 807.27709961 C-538.88992992 794.39311147 -532.43791778 781.51115334 -525.98583984 768.62922668 C-520.06237738 756.80260317 -514.13982206 744.97552753 -508.22052765 733.14681721 C-505.89818844 728.50625682 -503.57501282 723.86611943 -501.24975586 719.22702026 C-492.60425246 701.97808645 -483.97055579 684.73343816 -475.70858765 667.29660034 C-472.66178265 660.86819108 -469.49010092 654.50523053 -466.296875 648.1484375 C-465.6846499 646.92586619 -465.07260955 645.70320235 -464.46073914 644.48045349 C-462.89598317 641.35465163 -461.32882642 638.23006037 -459.76104736 635.10577393 C-458.14319163 631.88053368 -456.52777337 628.65407295 -454.91210938 625.42773438 C-451.77573333 619.16551473 -448.63680267 612.90457911 -445.49609375 606.64453125 C-446.26501953 606.35481445 -447.03394531 606.06509766 -447.82617188 605.76660156 C-457.90790087 601.52962036 -465.57734193 592.1176829 -470.49609375 582.64453125 C-470.49609375 581.98453125 -470.49609375 581.32453125 -470.49609375 580.64453125 C-471.15609375 580.64453125 -471.81609375 580.64453125 -472.49609375 580.64453125 C-473.14503612 578.58300736 -473.79012015 576.52026867 -474.43359375 574.45703125 C-474.79324219 573.30847656 -475.15289063 572.15992188 -475.5234375 570.9765625 C-477.1777965 565.30922022 -477.59554025 560.51187498 -477.49609375 554.64453125 C-478.77755217 554.67271942 -480.05901058 554.70090759 -481.37930107 554.72994995 C-489.40085983 554.72354692 -497.37735508 553.94453517 -505.36477661 553.27783203 C-507.18416613 553.12899172 -509.00358499 552.98050969 -510.82303035 552.83235359 C-515.806033 552.4255535 -520.78860607 552.01369093 -525.77112246 551.60098362 C-531.15044116 551.15630781 -536.53014614 550.71635214 -541.9098053 550.27581787 C-551.22489204 549.51236794 -560.53972987 548.74593975 -569.85440445 547.97747803 C-583.32179884 546.86642079 -596.78956065 545.75987171 -610.25741588 544.65441632 C-632.10904773 542.86068897 -653.96037888 541.06332503 -675.81152344 539.26367188 C-697.03565068 537.51566751 -718.25991729 535.7693773 -739.484375 534.02539062 C-741.44737074 533.86409286 -741.44737074 533.86409286 -743.45002295 533.69953656 C-750.01532158 533.16008196 -756.58062298 532.62066104 -763.14592576 532.08125687 C-817.5964117 527.60757023 -872.04641088 523.12798076 -926.49609375 518.64453125 C-926.81787598 519.45422363 -927.1396582 520.26391602 -927.47119141 521.09814453 C-927.9047998 522.16790527 -928.3384082 523.23766602 -928.78515625 524.33984375 C-929.21006348 525.39703613 -929.6349707 526.45422852 -930.07275391 527.54345703 C-935.14926515 538.60380795 -944.36373345 546.18488089 -955.49609375 550.64453125 C-966.6923119 554.31601837 -979.03887602 552.91293166 -989.49609375 547.64453125 C-999.99903794 540.95782271 -1007.34440258 531.76642037 -1010.49609375 519.64453125 C-1012.8470533 507.19564066 -1010.06537508 496.35564584 -1003.49609375 485.64453125 C-999.00924889 479.12818443 -993.53216382 475.157095 -986.49609375 471.64453125 C-985.48482422 471.13212891 -985.48482422 471.13212891 -984.453125 470.609375 C-975.59220056 466.92446445 -963.53160677 467.2279994 -954.49609375 470.26953125 C-942.57607673 475.43487196 -934.53301538 482.94830893 -929.4296875 494.9453125 C-928.17667385 498.56804234 -927.71230424 501.82481256 -927.49609375 505.64453125 C-926.39645654 505.62152524 -926.39645654 505.62152524 -925.27460444 505.59805447 C-915.71461679 505.48911661 -906.31164125 506.16816338 -896.79623413 506.96653748 C-895.03160102 507.11064351 -893.26692986 507.25428416 -891.50222456 507.39750344 C-886.68396272 507.78988389 -881.86626306 508.18881725 -877.04863358 508.58887684 C-871.84101078 509.02014803 -866.6328853 509.44526756 -861.42481995 509.87115479 C-851.23501547 510.70537589 -841.04567801 511.54517419 -830.85648225 512.3867939 C-818.98472161 513.36713727 -807.11247652 514.34155097 -795.24020071 515.31563235 C-774.05497115 517.05397739 -752.87013881 518.79711573 -731.68554688 520.54321289 C-711.13922086 522.23669318 -690.59269244 523.92768534 -670.04589844 525.61547852 C-668.14718003 525.77144768 -668.14718003 525.77144768 -666.21010368 525.93056773 C-661.12172565 526.34854044 -656.03334638 526.76649783 -650.94496538 527.18443438 C-611.94160493 530.3880357 -572.93843117 533.59392469 -533.93588066 536.80737305 C-529.84783632 537.14418034 -525.75977496 537.48077986 -521.67169762 537.81718636 C-516.96166269 538.20478783 -512.2516653 538.59284213 -507.54169758 538.98125935 C-505.84137648 539.12140885 -504.14104274 539.26140508 -502.44069485 539.4012292 C-493.78910255 540.11278344 -485.13925536 540.83557066 -476.49609375 541.64453125 C-476.36299805 540.938125 -476.22990234 540.23171875 -476.09277344 539.50390625 C-475.18982477 534.74800273 -474.17461729 530.20052373 -472.49609375 525.64453125 C-471.83609375 525.64453125 -471.17609375 525.64453125 -470.49609375 525.64453125 C-470.24988281 524.76667969 -470.00367188 523.88882813 -469.75 522.984375 C-466.3255915 513.86328694 -458.346682 507.04358201 -450.49609375 501.64453125 C-449.88507812 501.18433594 -449.2740625 500.72414063 -448.64453125 500.25 C-435.96012053 491.31693628 -419.38473706 491.09121828 -404.49609375 492.64453125 C-398.94338917 493.71141303 -393.71484427 495.49563398 -388.49609375 497.64453125 C-388.49609375 498.30453125 -388.49609375 498.96453125 -388.49609375 499.64453125 C-386.11603534 500.52603437 -384.70553547 500.6917899 -382.2109375 500.12890625 C-378.28349362 497.98152686 -376.30057976 494.87710972 -373.74609375 491.26953125 C-372.67587578 489.79941035 -371.60556266 488.3293587 -370.53515625 486.859375 C-370.01469727 486.1360498 -369.49423828 485.41272461 -368.95800781 484.66748047 C-367.04981664 482.02698747 -365.08809575 479.42891592 -363.12109375 476.83203125 C-360.47296887 473.30758295 -357.85018936 469.7670019 -355.25 466.20703125 C-349.69639709 458.61137927 -344.12060613 451.07131902 -338.18359375 443.76953125 C-334.63374424 439.40296851 -331.28212436 434.99498801 -328.12109375 430.33203125 C-322.8801045 422.60299114 -317.08755281 415.32701871 -311.32324219 407.98486328 C-307.76281305 403.4244312 -304.2630103 398.81753518 -300.75878906 394.21386719 C-298.6134305 391.39885913 -296.46236549 388.6030106 -294.23046875 385.85546875 C-292.35897703 383.60360932 -292.35897703 383.60360932 -290.87109375 380.58203125 C-288.63248872 376.53865938 -285.6831823 373.18488815 -282.69287109 369.67919922 C-278.03016584 364.17515415 -273.75519291 358.40326376 -269.45703125 352.61328125 C-266.72771882 348.93859055 -263.93258489 345.31897549 -261.12109375 341.70703125 C-258.49913959 338.33225881 -255.97814831 334.94067788 -253.68359375 331.33203125 C-250.84735772 326.94510527 -247.56453476 322.98158411 -244.24609375 318.95703125 C-238.72825909 312.26189154 -233.63034525 305.37110099 -228.65039062 298.27197266 C-223.07808492 290.41558732 -217.11775524 282.83021573 -211.23828125 275.203125 C-200.14761942 260.82782975 -200.14761942 260.82782975 -189.36328125 246.22265625 C-183.54118384 238.18377698 -177.4854078 230.33646391 -171.37109375 222.51953125 C-167.1459252 217.11532357 -163.03844925 211.68283238 -159.1640625 206.01953125 C-156.40933173 202.0971043 -153.44790928 198.33397714 -150.51171875 194.546875 C-146.06594522 188.80925875 -141.68535852 183.02161086 -137.29321289 177.24291992 C-136.32049438 175.9644519 -136.32049438 175.9644519 -135.328125 174.66015625 C-134.69213379 173.82419922 -134.05614258 172.98824219 -133.40087891 172.12695312 C-131.51874615 169.67405312 -129.60896533 167.24475186 -127.6953125 164.81640625 C-125.38529052 161.85994231 -123.39456858 158.88342778 -121.49609375 155.64453125 C-119.95741343 153.61921164 -118.40096364 151.62641435 -116.80859375 149.64453125 C-107.09914715 137.41949332 -97.58078139 125.02355566 -88.4609375 112.3515625 C-81.18721529 102.33031103 -73.6383967 92.50985407 -66.10009766 82.68725586 C-61.80205504 77.07435584 -57.60774241 71.39587061 -53.49609375 65.64453125 C-54.36234375 64.19046875 -54.36234375 64.19046875 -55.24609375 62.70703125 C-62.15024255 50.61862837 -64.01014489 39.50520938 -62.49609375 25.64453125 C-59.56950841 15.50407504 -52.46363181 6.86834173 -43.55859375 1.33203125 C-41.88026887 0.41912423 -40.19303399 -0.47764904 -38.49609375 -1.35546875 C-37.8 -1.76925781 -37.10390625 -2.18304688 -36.38671875 -2.609375 C-25.00919137 -8.74725161 -10.87442246 -5.90520281 0 0 Z " fill="#C1555F" transform="translate(1120.49609375,139.35546875)"/>
<path d="M0 0 C9.81384507 6.1729582 14.72835677 13.16197836 19.50390625 23.64453125 C19.88160156 24.258125 20.25929688 24.87171875 20.6484375 25.50390625 C23.86627218 33.5558396 22.08446125 45.49823624 18.77734375 53.21484375 C16.65495072 57.26431758 14.21672182 60.97030576 11.50390625 64.64453125 C10.92640625 65.53140625 10.34890625 66.41828125 9.75390625 67.33203125 C2.93093537 74.3445291 -6.89003411 78.57962557 -16.6171875 79.078125 C-18.38924184 79.09512626 -20.16151523 79.09629084 -21.93359375 79.08203125 C-22.81080078 79.10201172 -23.68800781 79.12199219 -24.59179688 79.14257812 C-31.27778125 79.13765109 -36.47620985 77.49384046 -42.49609375 74.64453125 C-42.86259033 75.14678223 -43.22908691 75.6490332 -43.60668945 76.16650391 C-55.94213738 93.04861592 -55.94213738 93.04861592 -62.43359375 101.20703125 C-65.96173253 105.6424595 -69.29456833 110.15840425 -72.5 114.83203125 C-76.79181076 120.87920101 -81.38078868 126.71102052 -85.90771484 132.58300781 C-87.33223971 134.43186855 -88.75310841 136.28343807 -90.171875 138.13671875 C-93.58201631 142.58711727 -96.99964704 147.02875421 -100.48828125 151.41796875 C-101.24020752 152.36603394 -101.24020752 152.36603394 -102.00732422 153.33325195 C-102.97446855 154.55050888 -103.94467942 155.76533792 -104.91845703 156.97729492 C-107.44558233 160.15429509 -107.44558233 160.15429509 -109.49609375 163.64453125 C-111.05902676 166.77039727 -113.3170997 169.36997857 -115.49609375 172.08203125 C-116.49792572 173.3433293 -117.49921668 174.60505723 -118.5 175.8671875 C-119.00418457 176.50156738 -119.50836914 177.13594727 -120.02783203 177.78955078 C-129.41273867 189.64630513 -138.55366298 201.7354183 -147.37109375 214.01953125 C-150.83935623 218.8206384 -154.46977278 223.48251907 -158.12109375 228.14453125 C-163.03829078 234.42493778 -167.84700354 240.77095033 -172.55859375 247.20703125 C-179.61941444 256.85141459 -186.86683736 266.34362617 -194.16503906 275.80908203 C-199.69989037 282.99025446 -205.21572767 290.16598203 -210.43359375 297.58203125 C-215.96503149 305.43847446 -221.90807605 312.9683258 -227.8359375 320.52734375 C-235.41310062 330.04930942 -235.41310062 330.04930942 -242.37109375 340.01953125 C-245.48688821 344.82450642 -249.09058979 349.19807339 -252.6887207 353.64404297 C-260.48249336 363.30053088 -267.80202967 373.31388455 -275.12109375 383.33203125 C-279.21243957 388.93216019 -283.39325516 394.45543151 -287.63671875 399.94140625 C-296.45784799 411.3487011 -305.21112308 422.80748023 -313.69726562 434.46655273 C-316.94945249 438.92604653 -320.28882917 443.31040082 -323.66650391 447.67529297 C-330.78846695 456.88785181 -337.73516282 466.23248326 -344.61645508 475.62573242 C-353.59213239 487.8709691 -362.70731946 500.03289397 -372.49609375 511.64453125 C-375.9034908 509.39874683 -379.26087633 507.13316003 -382.49609375 504.64453125 C-381.60758854 500.09533524 -378.96619106 497.24455166 -376.05859375 493.76953125 C-371.98579206 488.79840668 -368.06158729 483.78128375 -364.37109375 478.51953125 C-360.82615478 473.4764629 -357.16792511 468.5508024 -353.38842773 463.68139648 C-350.02669088 459.34702411 -346.72058283 454.97333242 -343.43359375 450.58203125 C-342.66813232 449.55940186 -342.66813232 449.55940186 -341.88720703 448.51611328 C-340.88665258 447.17871942 -339.8863211 445.84115871 -338.88623047 444.50341797 C-336.20711806 440.92091676 -333.52079713 437.34381948 -330.8359375 433.765625 C-329.09733016 431.44651437 -327.36049755 429.1261229 -325.625 426.8046875 C-319.71986466 418.91062367 -313.76956662 411.05600484 -307.74023438 403.25634766 C-306.42163553 401.54806869 -305.1068552 399.8369057 -303.79296875 398.125 C-303.3458252 397.54258545 -302.89868164 396.9601709 -302.43798828 396.36010742 C-301.19947175 394.7466377 -299.96106044 393.1330872 -298.72265625 391.51953125 C-297.27394249 389.64891138 -295.80349301 387.79485856 -294.30859375 385.9609375 C-292.36978757 383.6224864 -292.36978757 383.6224864 -290.87109375 380.58203125 C-288.63248872 376.53865938 -285.6831823 373.18488815 -282.69287109 369.67919922 C-278.03016584 364.17515415 -273.75519291 358.40326376 -269.45703125 352.61328125 C-266.72771882 348.93859055 -263.93258489 345.31897549 -261.12109375 341.70703125 C-258.49913959 338.33225881 -255.97814831 334.94067788 -253.68359375 331.33203125 C-250.84735772 326.94510527 -247.56453476 322.98158411 -244.24609375 318.95703125 C-238.72825909 312.26189154 -233.63034525 305.37110099 -228.65039062 298.27197266 C-223.07808492 290.41558732 -217.11775524 282.83021573 -211.23828125 275.203125 C-200.14761942 260.82782975 -200.14761942 260.82782975 -189.36328125 246.22265625 C-183.54118384 238.18377698 -177.4854078 230.33646391 -171.37109375 222.51953125 C-167.1459252 217.11532357 -163.03844925 211.68283238 -159.1640625 206.01953125 C-156.40933173 202.0971043 -153.44790928 198.33397714 -150.51171875 194.546875 C-146.06594522 188.80925875 -141.68535852 183.02161086 -137.29321289 177.24291992 C-136.64473389 176.39060791 -135.99625488 175.5382959 -135.328125 174.66015625 C-134.69213379 173.82419922 -134.05614258 172.98824219 -133.40087891 172.12695312 C-131.51874615 169.67405312 -129.60896533 167.24475186 -127.6953125 164.81640625 C-125.38529052 161.85994231 -123.39456858 158.88342778 -121.49609375 155.64453125 C-119.95741343 153.61921164 -118.40096364 151.62641435 -116.80859375 149.64453125 C-107.09914715 137.41949332 -97.58078139 125.02355566 -88.4609375 112.3515625 C-81.18721529 102.33031103 -73.6383967 92.50985407 -66.10009766 82.68725586 C-61.80205504 77.07435584 -57.60774241 71.39587061 -53.49609375 65.64453125 C-54.36234375 64.19046875 -54.36234375 64.19046875 -55.24609375 62.70703125 C-62.15024255 50.61862837 -64.01014489 39.50520938 -62.49609375 25.64453125 C-59.56950841 15.50407504 -52.46363181 6.86834173 -43.55859375 1.33203125 C-41.88026887 0.41912423 -40.19303399 -0.47764904 -38.49609375 -1.35546875 C-37.8 -1.76925781 -37.10390625 -2.18304688 -36.38671875 -2.609375 C-25.00919137 -8.74725161 -10.87442246 -5.90520281 0 0 Z " fill="#FEFEFE" transform="translate(1120.49609375,139.35546875)"/>
<path d="M0 0 C4 1.33333333 8 2.66666667 12 4 C11.37375964 8.93883692 9.2465036 12.90208222 7.02197266 17.28076172 C6.61033875 18.10286133 6.19870483 18.92496094 5.77459717 19.77197266 C4.40996856 22.49403677 3.03696261 25.21178715 1.6640625 27.9296875 C0.70476686 29.84012948 -0.253933 31.75087074 -1.21206665 33.66189575 C-3.74430875 38.70924177 -6.28335564 43.75313198 -8.82421875 48.79614258 C-12.85607561 56.80082565 -16.87818435 64.81040693 -20.89928055 72.82049942 C-22.28751236 75.58331335 -23.67893674 78.34449897 -25.07089233 81.10543823 C-29.4587548 89.82394832 -33.76762426 98.57105246 -37.94775391 107.39111328 C-45.75061756 123.82081593 -53.96928424 140.04703798 -62.11898804 156.30643845 C-64.46712291 160.99257037 -66.81255686 165.68005369 -69.15820312 170.36743164 C-75.60616383 183.25141978 -82.05817597 196.13337791 -88.51025391 209.01530457 C-94.43371637 220.84192808 -100.35627169 232.66900372 -106.2755661 244.49771404 C-108.59790531 249.13827443 -110.92108093 253.77841182 -113.24633789 258.41751099 C-125.43200179 282.69921528 -125.43200179 282.69921528 -137.25919819 307.15670109 C-142.28120242 317.74312968 -147.5421896 328.2092924 -152.79296875 338.68359375 C-153.8760164 340.84781682 -154.95888323 343.0121304 -156.0415802 345.17652893 C-158.84921492 350.78803645 -161.65925219 356.39833726 -164.46984863 362.00836182 C-167.35444186 367.76719564 -170.23668249 373.52720667 -173.11914062 379.28710938 C-178.74383438 390.52587161 -184.37107531 401.76335629 -190 413 C-188.81954102 414.17453735 -188.81954102 414.17453735 -187.61523438 415.37280273 C-178.45992922 424.56998708 -172.50171021 434.85419008 -171.93359375 448.05859375 C-172.22153349 460.81263065 -176.79962127 470.54641062 -185.55859375 479.73828125 C-193.71254665 487.29210322 -203.22983909 490.78137883 -214.33203125 491.09375 C-227.87537655 490.45112389 -238.19046665 485.55112652 -247.3125 475.5625 C-254.35187068 466.86565976 -257.49993298 456.22112012 -256.82421875 445.109375 C-255.38517555 434.00403148 -250.47126819 423.48351162 -242 416 C-238.80590927 413.67075443 -235.53472416 411.76461346 -232 410 C-230.98873047 409.48759766 -230.98873047 409.48759766 -229.95703125 408.96484375 C-222.17895367 405.73024669 -209.98798034 405.40023737 -202 408 C-201.72354613 407.12191398 -201.44709227 406.24382795 -201.16226101 405.33913326 C-200.09223096 402.26497616 -198.8617358 399.47964106 -197.40382385 396.5738678 C-196.87846542 395.52184677 -196.35310699 394.46982574 -195.81182861 393.38592529 C-195.23785339 392.24673645 -194.66387817 391.10754761 -194.07250977 389.93383789 C-193.4591782 388.70937854 -192.84620661 387.48473882 -192.23356628 386.25993347 C-190.91544894 383.62662648 -189.59482055 380.99459998 -188.2722187 378.36354256 C-186.16883338 374.17917862 -184.07122416 369.99193572 -181.97434998 365.80430603 C-178.6437435 359.15447341 -175.30941296 352.50651635 -171.9734363 345.85937637 C-166.03525031 334.02714404 -160.10124429 322.19281798 -154.1717419 310.35623163 C-152.09912508 306.21926335 -150.0242095 302.08345905 -147.94747847 297.94855469 C-142.13114325 286.36499404 -136.32883053 274.77960946 -130.78100586 263.06420898 C-123.07638308 246.81258564 -114.93973502 230.77144717 -106.88101196 214.69356155 C-104.53287709 210.00742963 -102.18744314 205.31994631 -99.84179688 200.63256836 C-93.39383617 187.74858022 -86.94182403 174.86662209 -80.48974609 161.98469543 C-74.56628363 150.15807192 -68.64372831 138.33099628 -62.7244339 126.50228596 C-60.40209469 121.86172557 -58.07891907 117.22158818 -55.75366211 112.58248901 C-47.10815871 95.3335552 -38.47446204 78.08890691 -30.2124939 60.65206909 C-27.1656889 54.22365983 -23.99400717 47.86069928 -20.80078125 41.50390625 C-20.18855615 40.28133494 -19.5765158 39.0586711 -18.96464539 37.83592224 C-17.39988942 34.71012038 -15.83273267 31.58552912 -14.26495361 28.46124268 C-12.64709788 25.23600243 -11.03167962 22.0095417 -9.41601562 18.78320312 C-6.27963958 12.52098348 -3.14070892 6.26004786 0 0 Z " fill="#FEFEFE" transform="translate(675,746)"/>
<path d="M0 0 C8.52204278 6.10239135 14.56931661 14.34456333 16.77734375 24.73046875 C17.01396125 26.5618234 17.1456438 28.40637383 17.25 30.25 C17.98309147 30.23466266 18.71618294 30.21932532 19.47148931 30.20352322 C29.03147696 30.09458536 38.4344525 30.77363213 47.94985962 31.57200623 C49.71449273 31.71611226 51.47916389 31.85975291 53.24386919 32.00297219 C58.06213103 32.39535264 62.87983069 32.794286 67.69746017 33.19434559 C72.90508297 33.62561678 78.11320845 34.05073631 83.3212738 34.47662354 C93.51107828 35.31084464 103.70041574 36.15064294 113.8896115 36.99226265 C125.76137214 37.97260602 137.63361723 38.94701972 149.50589304 39.9211011 C170.6911226 41.65944614 191.87595494 43.40258448 213.06054688 45.14868164 C233.60687289 46.84216193 254.15340131 48.53315409 274.70019531 50.22094727 C275.96600758 50.32492671 277.23181986 50.42890615 278.53599007 50.53603648 C283.6243681 50.95400919 288.71274737 51.37196658 293.80112837 51.78990313 C332.80448882 54.99350445 371.80766258 58.19939344 410.81021309 61.4128418 C414.89825743 61.74964909 418.98631879 62.08624861 423.07439613 62.42265511 C427.78443106 62.81025658 432.49442845 63.19831088 437.20439617 63.5867281 C438.90471727 63.7268776 440.60505101 63.86687383 442.3053989 64.00669795 C446.01728639 64.31198386 449.72903109 64.61871214 453.44034696 64.93087661 C455.87098926 65.13448434 458.3020263 65.33346904 460.7335403 65.52638829 C461.73816853 65.60944057 462.74279676 65.69249285 463.77786827 65.77806187 C464.62978229 65.84619793 465.48169631 65.914334 466.3594259 65.9845348 C468.25 66.25 468.25 66.25 469.25 67.25 C469.39346646 71.24984478 469.29212316 75.24829982 469.25 79.25 C459.14378411 79.49421453 449.19897736 78.725857 439.14080811 77.88330078 C437.31969811 77.73439117 435.49855291 77.58591165 433.67737603 77.43782234 C428.69883003 77.03174956 423.72080197 76.6196153 418.74284005 76.20645237 C413.36496876 75.76118012 407.98663314 75.32158377 402.60835266 74.88128662 C393.29871329 74.11836896 383.98937342 73.35188159 374.68022919 72.58294678 C361.22088235 71.47121068 347.76109438 70.36489363 334.30119374 69.25988507 C312.46171072 67.46679595 290.62258905 65.66934428 268.78369141 63.86914062 C247.57326757 62.12075216 226.36267637 60.37442364 205.15185547 58.63085938 C203.84371709 58.52332753 202.53557872 58.41579569 201.18779978 58.30500531 C194.62504288 57.76554509 188.06228266 57.2261253 181.49952078 56.68672562 C127.08249731 52.21408569 72.66605864 47.73436214 18.25 43.25 C17.92821777 44.05969238 17.60643555 44.86938477 17.27490234 45.70361328 C16.84129395 46.77337402 16.40768555 47.84313477 15.9609375 48.9453125 C15.53603027 50.00250488 15.11112305 51.05969727 14.67333984 52.14892578 C9.5968286 63.2092767 0.3823603 70.79034964 -10.75 75.25 C-21.94621815 78.92148712 -34.29278227 77.51840041 -44.75 72.25 C-55.25294419 65.56329146 -62.59830883 56.37188912 -65.75 44.25 C-68.10095955 31.80110941 -65.31928133 20.96111459 -58.75 10.25 C-54.26315514 3.73365318 -48.78607007 -0.23743625 -41.75 -3.75 C-40.73873047 -4.26240234 -40.73873047 -4.26240234 -39.70703125 -4.78515625 C-26.68037472 -10.20243121 -11.56828912 -7.10401648 0 0 Z " fill="#FEFEFE" transform="translate(175.75,614.75)"/>
<path d="M0 0 C9.81384507 6.1729582 14.72835677 13.16197836 19.50390625 23.64453125 C19.88160156 24.258125 20.25929688 24.87171875 20.6484375 25.50390625 C23.86627218 33.5558396 22.08446125 45.49823624 18.77734375 53.21484375 C16.65495072 57.26431758 14.21672182 60.97030576 11.50390625 64.64453125 C10.92640625 65.53140625 10.34890625 66.41828125 9.75390625 67.33203125 C2.91777756 74.35805241 -6.90907286 78.5824419 -16.65234375 79.078125 C-18.43351309 79.09512588 -20.21490035 79.09629117 -21.99609375 79.08203125 C-22.88167969 79.10201172 -23.76726562 79.12199219 -24.6796875 79.14257812 C-31.10498379 79.13786058 -35.84968565 77.67887236 -41.49609375 74.64453125 C-41.49609375 73.65453125 -41.49609375 72.66453125 -41.49609375 71.64453125 C-42.05296875 71.58265625 -42.60984375 71.52078125 -43.18359375 71.45703125 C-46.42903389 70.31674147 -48.11998139 68.08156957 -50.49609375 65.64453125 C-51.48609375 65.31453125 -52.47609375 64.98453125 -53.49609375 64.64453125 C-62.20744973 54.68545502 -63.38562459 43.23558923 -62.96875 30.5078125 C-62.24629702 20.06947381 -56.14845519 11.48136572 -48.49609375 4.64453125 C-45.29751779 2.33473568 -41.99665093 0.45535407 -38.49609375 -1.35546875 C-37.8 -1.76925781 -37.10390625 -2.18304688 -36.38671875 -2.609375 C-25.00919137 -8.74725161 -10.87442246 -5.90520281 0 0 Z " fill="#C1555E" transform="translate(1120.49609375,139.35546875)"/>
<path d="M0 0 C0 0.66 0 1.32 0 2 C0.94875 2.04125 1.8975 2.0825 2.875 2.125 C10.79075668 3.29473732 17.56263434 8.65582704 22.46875 14.7421875 C29.08382329 24.49604557 31.99860432 35.53670188 30.53125 47.2421875 C28.22973503 59.18975785 22.04908811 69.03047115 12 76 C0.54058207 82.96856496 -10.89373135 84.45647745 -23.95703125 81.28125 C-34.89936744 77.73072973 -43.94127128 70.16603959 -49.25 59.9375 C-54.12454639 49.35912753 -55.11814223 39.29968972 -52 28 C-47.28377952 15.89403278 -40.62995085 7.80593192 -29 2 C-27.98873047 1.48759766 -27.98873047 1.48759766 -26.95703125 0.96484375 C-19.39029673 -2.18186403 -7.73406893 -2.57802298 0 0 Z " fill="#C1555F" transform="translate(472,1154)"/>
<path d="M0 0 C9.09138588 6.51008168 14.72385651 15.08886518 17.0625 26.0625 C17.15392541 27.45673755 17.21173403 28.85329221 17.25 30.25 C17.311875 31.3121875 17.37375 32.374375 17.4375 33.46875 C17.87445468 46.03119697 14.79416228 54.99985821 6.25 64.25 C-0.95818689 71.7131935 -10.37744262 76.40816926 -20.75 77.25 C-33.72210203 77.37939753 -44.18112289 74.10868701 -53.75 65.25 C-62.23982127 56.87388169 -66.5650811 46.15205298 -66.75 34.25 C-66.05484639 22.81858511 -61.61655843 12.35531852 -53.7265625 3.99609375 C-50.07284833 0.76840554 -46.09947974 -1.57864231 -41.75 -3.75 C-40.73873047 -4.26240234 -40.73873047 -4.26240234 -39.70703125 -4.78515625 C-26.68037472 -10.20243121 -11.56828912 -7.10401648 0 0 Z " fill="#C1555F" transform="translate(175.75,614.75)"/>
<path d="M0 0 C5.445 1.485 5.445 1.485 11 3 C11 3.99 11 4.98 11 6 C9.3509698 5.38348417 7.70584159 4.75652258 6.0625 4.125 C5.14597656 3.77695312 4.22945312 3.42890625 3.28515625 3.0703125 C1 2 1 2 0 0 Z " fill="#DEA4A9" transform="translate(676,745)"/>
<path d="" fill="#FFFFFF" transform="translate(0,0)"/>
<path d="" fill="#FFFFFF" transform="translate(0,0)"/>
<path d="" fill="#FFFFFF" transform="translate(0,0)"/>
<path d="" fill="#FFFFFF" transform="translate(0,0)"/>
<path d="" fill="#FF0000" transform="translate(0,0)"/>
<path d="" fill="#FF0000" transform="translate(0,0)"/>
<path d="" fill="#FF0000" transform="translate(0,0)"/>
<path d="" fill="#FF0000" transform="translate(0,0)"/>
<path d="" fill="#FF0000" transform="translate(0,0)"/>
<path d="" fill="#FF0000" transform="translate(0,0)"/>
<path d="" fill="#FF0000" transform="translate(0,0)"/>
<path d="" fill="#FF0000" transform="translate(0,0)"/>
<path d="" fill="#FF0000" transform="translate(0,0)"/>
<path d="" fill="#FF0000" transform="translate(0,0)"/>
<path d="" fill="#FF0000" transform="translate(0,0)"/>
<path d="" fill="#FF0000" transform="translate(0,0)"/>
<path d="" fill="#FF0000" transform="translate(0,0)"/>
<path d="" fill="#FF0000" transform="translate(0,0)"/>
<path d="" fill="#FF0000" transform="translate(0,0)"/>
<path d="" fill="#FF0000" transform="translate(0,0)"/>
<path d="" fill="#FF0000" transform="translate(0,0)"/>
<path d="" fill="#FF0000" transform="translate(0,0)"/>
<path d="" fill="#FFFFFF" transform="translate(0,0)"/>
<path d="" fill="#FFFFFF" transform="translate(0,0)"/>
<path d="" fill="#FFFFFF" transform="translate(0,0)"/>
<path d="" fill="#FFFFFF" transform="translate(0,0)"/>
<path d="" fill="#FF0000" transform="translate(0,0)"/>
<path d="" fill="#FFFFFF" transform="translate(0,0)"/>
<path d="" fill="#FFFFFF" transform="translate(0,0)"/>
<path d="" fill="#FFFFFF" transform="translate(0,0)"/>
<path d="" fill="#FFFFFF" transform="translate(0,0)"/>
<path d="" fill="#FFFFFF" transform="translate(0,0)"/>
<path d="" fill="#FF0000" transform="translate(0,0)"/>
<path d="" fill="#FFFFFF" transform="translate(0,0)"/>
<path d="" fill="#FFFFFF" transform="translate(0,0)"/>
<path d="" fill="#FFFFFF" transform="translate(0,0)"/>
<path d="" fill="#FFFFFF" transform="translate(0,0)"/>
<path d="" fill="#FFFFFF" transform="translate(0,0)"/>
<path d="" fill="#FFFFFF" transform="translate(0,0)"/>
<path d="" fill="#FFFFFF" transform="translate(0,0)"/>
<path d="" fill="#FFFFFF" transform="translate(0,0)"/>
<path d="" fill="#FFFFFF" transform="translate(0,0)"/>
<path d="" fill="#FFFFFF" transform="translate(0,0)"/>
<path d="" fill="#FFFFFF" transform="translate(0,0)"/>
<path d="" fill="#FFFFFF" transform="translate(0,0)"/>
<path d="" fill="#FFFFFF" transform="translate(0,0)"/>
<path d="" fill="#FFFFFF" transform="translate(0,0)"/>
<path d="" fill="#FFFFFF" transform="translate(0,0)"/>
<path d="" fill="#FFFFFF" transform="translate(0,0)"/>
<path d="" fill="#FFFFFF" transform="translate(0,0)"/>
<path d="" fill="#FFFFFF" transform="translate(0,0)"/>
<path d="" fill="#FFFFFF" transform="translate(0,0)"/>
<path d="" fill="#FFFFFF" transform="translate(0,0)"/>
<path d="" fill="#FFFFFF" transform="translate(0,0)"/>
<path d="" fill="#FFFFFF" transform="translate(0,0)"/>
<path d="" fill="#FFFFFF" transform="translate(0,0)"/>
<path d="" fill="#FFFFFF" transform="translate(0,0)"/>
<path d="" fill="#FFFFFF" transform="translate(0,0)"/>
<path d="" fill="#FFFFFF" transform="translate(0,0)"/>
<path d="" fill="#FFFFFF" transform="translate(0,0)"/>
<path d="" fill="#FFFFFF" transform="translate(0,0)"/>
<path d="" fill="#FFFFFF" transform="translate(0,0)"/>
<path d="" fill="#FFFFFF" transform="translate(0,0)"/>
<path d="" fill="#FFFFFF" transform="translate(0,0)"/>
<path d="" fill="#FFFFFF" transform="translate(0,0)"/>
<path d="" fill="#FFFFFF" transform="translate(0,0)"/>
<path d="" fill="#FFFFFF" transform="translate(0,0)"/>
<path d="" fill="#FFFFFF" transform="translate(0,0)"/>
<path d="" fill="#FFFFFF" transform="translate(0,0)"/>
<path d="" fill="#FFFFFF" transform="translate(0,0)"/>
<path d="" fill="#FFFFFF" transform="translate(0,0)"/>
<path d="" fill="#FFFFFF" transform="translate(0,0)"/>
<path d="" fill="#FFFFFF" transform="translate(0,0)"/>
<path d="" fill="#FFFFFF" transform="translate(0,0)"/>
<path d="" fill="#FFFFFF" transform="translate(0,0)"/>
<path d="" fill="#FFFFFF" transform="translate(0,0)"/>
<path d="" fill="#FFFFFF" transform="translate(0,0)"/>
<path d="" fill="#FFFFFF" transform="translate(0,0)"/>
<path d="" fill="#FFFFFF" transform="translate(0,0)"/>
<path d="" fill="#FFFFFF" transform="translate(0,0)"/>
<path d="" fill="#FFFFFF" transform="translate(0,0)"/>
<path d="" fill="#FFFFFF" transform="translate(0,0)"/>
<path d="" fill="#FFFFFF" transform="translate(0,0)"/>
<path d="" fill="#FFFFFF" transform="translate(0,0)"/>
<path d="" fill="#FFFFFF" transform="translate(0,0)"/>
<path d="" fill="#FFFFFF" transform="translate(0,0)"/>
<path d="" fill="#FFFFFF" transform="translate(0,0)"/>
<path d="" fill="#FFFFFF" transform="translate(0,0)"/>
<path d="" fill="#FFFFFF" transform="translate(0,0)"/>
<path d="" fill="#FFFFFF" transform="translate(0,0)"/>
<path d="" fill="#FFFFFF" transform="translate(0,0)"/>
<path d="" fill="#FFFFFF" transform="translate(0,0)"/>
<path d="" fill="#FFFFFF" transform="translate(0,0)"/>
<path d="" fill="#FFFFFF" transform="translate(0,0)"/>
<path d="" fill="#FFFFFF" transform="translate(0,0)"/>
<path d="" fill="#FFFFFF" transform="translate(0,0)"/>
<path d="" fill="#FFFFFF" transform="translate(0,0)"/>
<path d="" fill="#FFFFFF" transform="translate(0,0)"/>
<path d="" fill="#FFFFFF" transform="translate(0,0)"/>
<path d="" fill="#FFFFFF" transform="translate(0,0)"/>
<path d="" fill="#FFFFFF" transform="translate(0,0)"/>
<path d="" fill="#FFFFFF" transform="translate(0,0)"/>
<path d="" fill="#FFFFFF" transform="translate(0,0)"/>
<path d="" fill="#FFFFFF" transform="translate(0,0)"/>
<path d="" fill="#FFFFFF" transform="translate(0,0)"/>
<path d="" fill="#FFFFFF" transform="translate(0,0)"/>
<path d="" fill="#FFFFFF" transform="translate(0,0)"/>
<path d="" fill="#FFFFFF" transform="translate(0,0)"/>
<path d="" fill="#FFFFFF" transform="translate(0,0)"/>
<path d="" fill="#FFFFFF" transform="translate(0,0)"/>
<path d="" fill="#FFFFFF" transform="translate(0,0)"/>
<path d="" fill="#FFFFFF" transform="translate(0,0)"/>
<path d="" fill="#FFFFFF" transform="translate(0,0)"/>
<path d="" fill="#FFFFFF" transform="translate(0,0)"/>
<path d="" fill="#FFFFFF" transform="translate(0,0)"/>
<path d="" fill="#FFFFFF" transform="translate(0,0)"/>
<path d="" fill="#FFFFFF" transform="translate(0,0)"/>
<path d="" fill="#FFFFFF" transform="translate(0,0)"/>
<path d="" fill="#FFFFFF" transform="translate(0,0)"/>
<path d="" fill="#FFFFFF" transform="translate(0,0)"/>
<path d="" fill="#FFFFFF" transform="translate(0,0)"/>
<path d="" fill="#FFFFFF" transform="translate(0,0)"/>
<path d="" fill="#FFFFFF" transform="translate(0,0)"/>
<path d="" fill="#FFFFFF" transform="translate(0,0)"/>
<path d="" fill="#FFFFFF" transform="translate(0,0)"/>
<path d="" fill="#FFFFFF" transform="translate(0,0)"/>
<path d="" fill="#FFFFFF" transform="translate(0,0)"/>
<path d="" fill="#FFFFFF" transform="translate(0,0)"/>
<path d="" fill="#FFFFFF" transform="translate(0,0)"/>
<path d="" fill="#FFFFFF" transform="translate(0,0)"/>
<path d="" fill="#FFFFFF" transform="translate(0,0)"/>
<path d="" fill="#FFFFFF" transform="translate(0,0)"/>
<path d="" fill="#FFFFFF" transform="translate(0,0)"/>
<path d="" fill="#FFFFFF" transform="translate(0,0)"/>
<path d="" fill="#FFFFFF" transform="translate(0,0)"/>
<path d="" fill="#FFFFFF" transform="translate(0,0)"/>
<path d="" fill="#FFFFFF" transform="translate(0,0)"/>
<path d="" fill="#FFFFFF" transform="translate(0,0)"/>
<path d="" fill="#FFFFFF" transform="translate(0,0)"/>
<path d="" fill="#FFFFFF" transform="translate(0,0)"/>
<path d="" fill="#FFFFFF" transform="translate(0,0)"/>
<path d="" fill="#FFFFFF" transform="translate(0,0)"/>
<path d="" fill="#FFFFFF" transform="translate(0,0)"/>
<path d="" fill="#FFFFFF" transform="translate(0,0)"/>
<path d="" fill="#FFFFFF" transform="translate(0,0)"/>
<path d="" fill="#FFFFFF" transform="translate(0,0)"/>
<path d="" fill="#FFFFFF" transform="translate(0,0)"/>
<path d="" fill="#FFFFFF" transform="translate(0,0)"/>
<path d="" fill="#FFFFFF" transform="translate(0,0)"/>
<path d="" fill="#FFFFFF" transform="translate(0,0)"/>
<path d="" fill="#FFFFFF" transform="translate(0,0)"/>
<path d="" fill="#FFFFFF" transform="translate(0,0)"/>
<path d="" fill="#FFFFFF" transform="translate(0,0)"/>
<path d="" fill="#FFFFFF" transform="translate(0,0)"/>
<path d="" fill="#FFFFFF" transform="translate(0,0)"/>
<path d="" fill="#FFFFFF" transform="translate(0,0)"/>
<path d="" fill="#FFFFFF" transform="translate(0,0)"/>
<path d="" fill="#FFFFFF" transform="translate(0,0)"/>
<path d="" fill="#FFFFFF" transform="translate(0,0)"/>
<path d="" fill="#FFFFFF" transform="translate(0,0)"/>
<path d="" fill="#FFFFFF" transform="translate(0,0)"/>
<path d="" fill="#FFFFFF" transform="translate(0,0)"/>
<path d="" fill="#FFFFFF" transform="translate(0,0)"/>
<path d="" fill="#FFFFFF" transform="translate(0,0)"/>
<path d="" fill="#FFFFFF" transform="translate(0,0)"/>
<path d="" fill="#FFFFFF" transform="translate(0,0)"/>
<path d="" fill="#FFFFFF" transform="translate(0,0)"/>
<path d="" fill="#FFFFFF" transform="translate(0,0)"/>
<path d="" fill="#FFFFFF" transform="translate(0,0)"/>
<path d="" fill="#FFFFFF" transform="translate(0,0)"/>
<path d="" fill="#FFFFFF" transform="translate(0,0)"/>
<path d="" fill="#FFFFFF" transform="translate(0,0)"/>
<path d="" fill="#FFFFFF" transform="translate(0,0)"/>
<path d="" fill="#FFFFFF" transform="translate(0,0)"/>
<path d="" fill="#FFFFFF" transform="translate(0,0)"/>
<path d="" fill="#FFFFFF" transform="translate(0,0)"/>
<path d="" fill="#FFFFFF" transform="translate(0,0)"/>
<path d="" fill="#FFFFFF" transform="translate(0,0)"/>
<path d="" fill="#FFFFFF" transform="translate(0,0)"/>
<path d="" fill="#FFFFFF" transform="translate(0,0)"/>
<path d="" fill="#FFFFFF" transform="translate(0,0)"/>
<path d="" fill="#FFFFFF" transform="translate(0,0)"/>
<path d="" fill="#FFFFFF" transform="translate(0,0)"/>
<path d="" fill="#FFFFFF" transform="translate(0,0)"/>
<path d="" fill="#FFFFFF" transform="translate(0,0)"/>
<path d="" fill="#FFFFFF" transform="translate(0,0)"/>
<path d="" fill="#FFFFFF" transform="translate(0,0)"/>
<path d="" fill="#FFFFFF" transform="translate(0,0)"/>
<path d="" fill="#FFFFFF" transform="translate(0,0)"/>
<path d="" fill="#FFFFFF" transform="translate(0,0)"/>
<path d="" fill="#FFFFFF" transform="translate(0,0)"/>
<path d="" fill="#FFFFFF" transform="translate(0,0)"/>
<path d="" fill="#FFFFFF" transform="translate(0,0)"/>
<path d="" fill="#FFFFFF" transform="translate(0,0)"/>
<path d="" fill="#FFFFFF" transform="translate(0,0)"/>
<path d="" fill="#FFFFFF" transform="translate(0,0)"/>
<path d="" fill="#FFFFFF" transform="translate(0,0)"/>
<path d="" fill="#FFFFFF" transform="translate(0,0)"/>
<path d="" fill="#FFFFFF" transform="translate(0,0)"/>
<path d="" fill="#FFFFFF" transform="translate(0,0)"/>
<path d="" fill="#FFFFFF" transform="translate(0,0)"/>
<path d="" fill="#FFFFFF" transform="translate(0,0)"/>
<path d="" fill="#FFFFFF" transform="translate(0,0)"/>
<path d="" fill="#FFFFFF" transform="translate(0,0)"/>
<path d="" fill="#FFFFFF" transform="translate(0,0)"/>
<path d="" fill="#FFFFFF" transform="translate(0,0)"/>
<path d="" fill="#FFFFFF" transform="translate(0,0)"/>
<path d="" fill="#FFFFFF" transform="translate(0,0)"/>
<path d="" fill="#FFFFFF" transform="translate(0,0)"/>
<path d="" fill="#FFFFFF" transform="translate(0,0)"/>
<path d="" fill="#FFFFFF" transform="translate(0,0)"/>
<path d="" fill="#FFFFFF" transform="translate(0,0)"/>
<path d="" fill="#FFFFFF" transform="translate(0,0)"/>
<path d="" fill="#FFFFFF" transform="translate(0,0)"/>
<path d="" fill="#FFFFFF" transform="translate(0,0)"/>
<path d="" fill="#FFFFFF" transform="translate(0,0)"/>
<path d="" fill="#FFFFFF" transform="translate(0,0)"/>
<path d="" fill="#FFFFFF" transform="translate(0,0)"/>
<path d="" fill="#FFFFFF" transform="translate(0,0)"/>
<path d="" fill="#FFFFFF" transform="translate(0,0)"/>
<path d="" fill="#FFFFFF" transform="translate(0,0)"/>
<path d="" fill="#FFFFFF" transform="translate(0,0)"/>
<path d="" fill="#FFFFFF" transform="translate(0,0)"/>
<path d="" fill="#FFFFFF" transform="translate(0,0)"/>
<path d="" fill="#FFFFFF" transform="translate(0,0)"/>
<path d="" fill="#FFFFFF" transform="translate(0,0)"/>
<path d="" fill="#FFFFFF" transform="translate(0,0)"/>
<path d="" fill="#FFFFFF" transform="translate(0,0)"/>
<path d="" fill="#FFFFFF" transform="translate(0,0)"/>
<path d="" fill="#FFFFFF" transform="translate(0,0)"/>
<path d="" fill="#FFFFFF" transform="translate(0,0)"/>
<path d="" fill="#FFFFFF" transform="translate(0,0)"/>
<path d="" fill="#FFFFFF" transform="translate(0,0)"/>
<path d="" fill="#FFFFFF" transform="translate(0,0)"/>
<path d="" fill="#FFFFFF" transform="translate(0,0)"/>
<path d="" fill="#FFFFFF" transform="translate(0,0)"/>
<path d="" fill="#FFFFFF" transform="translate(0,0)"/>
<path d="" fill="#FFFFFF" transform="translate(0,0)"/>
<path d="" fill="#FFFFFF" transform="translate(0,0)"/>
<path d="" fill="#FFFFFF" transform="translate(0,0)"/>
<path d="" fill="#FFFFFF" transform="translate(0,0)"/>
<path d="" fill="#FFFFFF" transform="translate(0,0)"/>
<path d="" fill="#FFFFFF" transform="translate(0,0)"/>
<path d="" fill="#FFFFFF" transform="translate(0,0)"/>
<path d="" fill="#FFFFFF" transform="translate(0,0)"/>
<path d="" fill="#FFFFFF" transform="translate(0,0)"/>
<path d="" fill="#FFFFFF" transform="translate(0,0)"/>
<path d="" fill="#FFFFFF" transform="translate(0,0)"/>
<path d="" fill="#FFFFFF" transform="translate(0,0)"/>
<path d="" fill="#FFFFFF" transform="translate(0,0)"/>
<path d="" fill="#FFFFFF" transform="translate(0,0)"/>
<path d="" fill="#FFFFFF" transform="translate(0,0)"/>
<path d="" fill="#FFFFFF" transform="translate(0,0)"/>
<path d="" fill="#FFFFFF" transform="translate(0,0)"/>
<path d="" fill="#FFFFFF" transform="translate(0,0)"/>
<path d="" fill="#FFFFFF" transform="translate(0,0)"/>
<path d="" fill="#FFFFFF" transform="translate(0,0)"/>
<path d="" fill="#FFFFFF" transform="translate(0,0)"/>
<path d="" fill="#FFFFFF" transform="translate(0,0)"/>
<path d="" fill="#FFFFFF" transform="translate(0,0)"/>
<path d="" fill="#FFFFFF" transform="translate(0,0)"/>
<path d="" fill="#FFFFFF" transform="translate(0,0)"/>
<path d="" fill="#FFFFFF" transform="translate(0,0)"/>
<path d="" fill="#FFFFFF" transform="translate(0,0)"/>
<path d="" fill="#FFFFFF" transform="translate(0,0)"/>
<path d="" fill="#FFFFFF" transform="translate(0,0)"/>
<path d="" fill="#FFFFFF" transform="translate(0,0)"/>
<path d="" fill="#FFFFFF" transform="translate(0,0)"/>
<path d="" fill="#FFFFFF" transform="translate(0,0)"/>
<path d="" fill="#FFFFFF" transform="translate(0,0)"/>
<path d="" fill="#FFFFFF" transform="translate(0,0)"/>
<path d="" fill="#FFFFFF" transform="translate(0,0)"/>
<path d="" fill="#FFFFFF" transform="translate(0,0)"/>
<path d="" fill="#FFFFFF" transform="translate(0,0)"/>
<path d="" fill="#FFFFFF" transform="translate(0,0)"/>
<path d="" fill="#FFFFFF" transform="translate(0,0)"/>
<path d="" fill="#FFFFFF" transform="translate(0,0)"/>
<path d="" fill="#FFFFFF" transform="translate(0,0)"/>
<path d="" fill="#FFFFFF" transform="translate(0,0)"/>
<path d="" fill="#FFFFFF" transform="translate(0,0)"/>
<path d="" fill="#FFFFFF" transform="translate(0,0)"/>
<path d="" fill="#FFFFFF" transform="translate(0,0)"/>
<path d="" fill="#FFFFFF" transform="translate(0,0)"/>
<path d="" fill="#FFFFFF" transform="translate(0,0)"/>
<path d="" fill="#FFFFFF" transform="translate(0,0)"/>
<path d="" fill="#FFFFFF" transform="translate(0,0)"/>
<path d="" fill="#FFFFFF" transform="translate(0,0)"/>
<path d="" fill="#FFFFFF" transform="translate(0,0)"/>
<path d="" fill="#FFFFFF" transform="translate(0,0)"/>
<path d="" fill="#FFFFFF" transform="translate(0,0)"/>
<path d="" fill="#FFFFFF" transform="translate(0,0)"/>
<path d="" fill="#FFFFFF" transform="translate(0,0)"/>
<path d="" fill="#FFFFFF" transform="translate(0,0)"/>
<path d="" fill="#FFFFFF" transform="translate(0,0)"/>
<path d="" fill="#FFFFFF" transform="translate(0,0)"/>
<path d="" fill="#FFFFFF" transform="translate(0,0)"/>
<path d="" fill="#FFFFFF" transform="translate(0,0)"/>
<path d="" fill="#FFFFFF" transform="translate(0,0)"/>
<path d="" fill="#FFFFFF" transform="translate(0,0)"/>
<path d="" fill="#FFFFFF" transform="translate(0,0)"/>
<path d="" fill="#FFFFFF" transform="translate(0,0)"/>
<path d="" fill="#FFFFFF" transform="translate(0,0)"/>
<path d="" fill="#FFFFFF" transform="translate(0,0)"/>
<path d="" fill="#FFFFFF" transform="translate(0,0)"/>
<path d="" fill="#FFFFFF" transform="translate(0,0)"/>
<path d="" fill="#FFFFFF" transform="translate(0,0)"/>
<path d="" fill="#FFFFFF" transform="translate(0,0)"/>
<path d="" fill="#FFFFFF" transform="translate(0,0)"/>
<path d="" fill="#FFFFFF" transform="translate(0,0)"/>
<path d="" fill="#FFFFFF" transform="translate(0,0)"/>
<path d="" fill="#FFFFFF" transform="translate(0,0)"/>
<path d="" fill="#FFFFFF" transform="translate(0,0)"/>
<path d="" fill="#FFFFFF" transform="translate(0,0)"/>
<path d="" fill="#FFFFFF" transform="translate(0,0)"/>
<path d="" fill="#FFFFFF" transform="translate(0,0)"/>
<path d="" fill="#FFFFFF" transform="translate(0,0)"/>
<path d="" fill="#FFFFFF" transform="translate(0,0)"/>
<path d="" fill="#FFFFFF" transform="translate(0,0)"/>
<path d="" fill="#FFFFFF" transform="translate(0,0)"/>
<path d="" fill="#FFFFFF" transform="translate(0,0)"/>
<path d="" fill="#FFFFFF" transform="translate(0,0)"/>
<path d="" fill="#FFFFFF" transform="translate(0,0)"/>
<path d="" fill="#FFFFFF" transform="translate(0,0)"/>
<path d="" fill="#FFFFFF" transform="translate(0,0)"/>
<path d="" fill="#FFFFFF" transform="translate(0,0)"/>
<path d="" fill="#FFFFFF" transform="translate(0,0)"/>
<path d="" fill="#FFFFFF" transform="translate(0,0)"/>
<path d="" fill="#FFFFFF" transform="translate(0,0)"/>
<path d="" fill="#FFFFFF" transform="translate(0,0)"/>
<path d="" fill="#FFFFFF" transform="translate(0,0)"/>
<path d="" fill="#FFFFFF" transform="translate(0,0)"/>
<path d="" fill="#FFFFFF" transform="translate(0,0)"/>
<path d="" fill="#FFFFFF" transform="translate(0,0)"/>
<path d="" fill="#FFFFFF" transform="translate(0,0)"/>
<path d="" fill="#FFFFFF" transform="translate(0,0)"/>
<path d="" fill="#FFFFFF" transform="translate(0,0)"/>
<path d="" fill="#FFFFFF" transform="translate(0,0)"/>
<path d="" fill="#FFFFFF" transform="translate(0,0)"/>
<path d="" fill="#FFFFFF" transform="translate(0,0)"/>
<path d="" fill="#FFFFFF" transform="translate(0,0)"/>
<path d="" fill="#FFFFFF" transform="translate(0,0)"/>
<path d="" fill="#FFFFFF" transform="translate(0,0)"/>
<path d="" fill="#FFFFFF" transform="translate(0,0)"/>
<path d="" fill="#FFFFFF" transform="translate(0,0)"/>
<path d="" fill="#FFFFFF" transform="translate(0,0)"/>
<path d="" fill="#FFFFFF" transform="translate(0,0)"/>
<path d="" fill="#FFFFFF" transform="translate(0,0)"/>
<path d="" fill="#FFFFFF" transform="translate(0,0)"/>
<path d="" fill="#FFFFFF" transform="translate(0,0)"/>
<path d="" fill="#FFFFFF" transform="translate(0,0)"/>
<path d="" fill="#FFFFFF" transform="translate(0,0)"/>
<path d="" fill="#FFFFFF" transform="translate(0,0)"/>
<path d="" fill="#FFFFFF" transform="translate(0,0)"/>
<path d="" fill="#FFFFFF" transform="translate(0,0)"/>
<path d="" fill="#FFFFFF" transform="translate(0,0)"/>
<path d="" fill="#FFFFFF" transform="translate(0,0)"/>
<path d="" fill="#FFFFFF" transform="translate(0,0)"/>
<path d="" fill="#FFFFFF" transform="translate(0,0)"/>
<path d="" fill="#FFFFFF" transform="translate(0,0)"/>
<path d="" fill="#FFFFFF" transform="translate(0,0)"/>
<path d="" fill="#FFFFFF" transform="translate(0,0)"/>
<path d="" fill="#FFFFFF" transform="translate(0,0)"/>
<path d="" fill="#FFFFFF" transform="translate(0,0)"/>
<path d="" fill="#FFFFFF" transform="translate(0,0)"/>
<path d="" fill="#FFFFFF" transform="translate(0,0)"/>
<path d="" fill="#FF0000" transform="translate(0,0)"/>
<path d="" fill="#FF0000" transform="translate(0,0)"/>
<path d="" fill="#FF0000" transform="translate(0,0)"/>
<path d="" fill="#FF0000" transform="translate(0,0)"/>
<path d="" fill="#FF0000" transform="translate(0,0)"/>
<path d="" fill="#FF0000" transform="translate(0,0)"/>
<path d="" fill="#FF0000" transform="translate(0,0)"/>
<path d="" fill="#FF0000" transform="translate(0,0)"/>
</svg>
