<?xml version="1.0" encoding="UTF-8"?>
<svg version="1.1" xmlns="http://www.w3.org/2000/svg" width="1400" height="1400">
<path d="M0 0 C2.85326664 1.87939719 5.32662438 4.07495347 7.83984375 6.3828125 C10.0558358 8.37802305 12.35557775 10.20598054 14.70703125 12.0390625 C28.78628982 23.23358001 41.9648736 36.04880484 52.95703125 50.2890625 C53.41577637 50.88203125 53.87452148 51.475 54.34716797 52.0859375 C66.43566112 67.77347757 76.96612685 84.19919551 86.95703125 101.2890625 C87.49263672 102.20252441 88.02824219 103.11598633 88.58007812 104.05712891 C114.45792182 148.38947528 133.16043002 197.0396699 141.76953125 247.7265625 C141.96450195 248.87294189 142.15947266 250.01932129 142.36035156 251.20043945 C145.50728075 270.86319677 146.29924425 290.33327054 146.20703125 310.2265625 C146.20359711 311.43794891 146.20016296 312.64933533 146.19662476 313.89743042 C146.0706728 351.80959287 142.75732022 387.76276332 131.95703125 424.2890625 C131.57006856 425.60479384 131.18319041 426.92055004 130.79638672 428.23632812 C124.10561969 450.95072473 124.10561969 450.95072473 120.95703125 460.2890625 C125.57823258 455.25271779 130.10140158 450.17197677 134.39453125 444.8515625 C137.47039713 441.04818747 140.64456291 437.38823598 143.95703125 433.7890625 C147.97355756 429.42085877 151.75042196 424.91781957 155.48046875 420.3046875 C160.50581786 414.18549269 165.72942729 408.23558399 170.95703125 402.2890625 C171.42850586 401.75152344 171.89998047 401.21398437 172.38574219 400.66015625 C177.594595 394.74392836 182.91670356 389.34153421 188.95703125 384.2890625 C189.96264064 383.41210542 190.96639218 382.53301552 191.96875 381.65234375 C199.69838168 374.89046692 207.68100559 368.54869901 215.88671875 362.375 C218.34481699 360.52487974 220.77045369 358.65028592 223.15234375 356.703125 C254.69648765 331.25367208 295.61279181 314.09338599 332.95703125 299.2890625 C334.32187729 298.74414712 335.68650787 298.19869128 337.05078125 297.65234375 C339.33665864 296.73746851 341.62445324 295.82737019 343.9140625 294.921875 C347.15912167 293.62586846 350.37645197 292.26962822 353.59375 290.90625 C390.10656724 275.54877168 428.11117849 263.98566219 466.95703125 256.2890625 C468.28153067 256.02108995 469.60590961 255.75252129 470.93017578 255.48339844 C531.16155789 243.27832752 531.16155789 243.27832752 552.45703125 255.6640625 C559.22946552 260.41189537 561.78656193 265.00058483 563.515625 273.0234375 C565.92617614 290.85724949 557.63846057 309.14129988 550.95703125 325.2890625 C550.60962891 326.13210938 550.26222656 326.97515625 549.90429688 327.84375 C542.96886523 344.30418296 533.1434638 358.72360849 522.95703125 373.2890625 C522.32764648 374.19446777 521.69826172 375.09987305 521.04980469 376.03271484 C514.91992863 384.81864337 508.53201368 393.26443878 501.5 401.34765625 C499.10772285 404.11476023 496.80683852 406.93506151 494.51953125 409.7890625 C487.70873654 418.15276732 480.32715518 426.04875484 472.62133789 433.59277344 C471.02445144 435.22034672 469.55998501 436.9024355 468.08984375 438.64453125 C463.12788053 444.34571905 457.772654 449.65948067 452.43041992 455.00097656 C450.62584958 456.80776716 448.82947005 458.62245846 447.03320312 460.4375 C445.88720695 461.58642466 444.74074003 462.73488002 443.59375 463.8828125 C443.05731369 464.42643433 442.52087738 464.97005615 441.96818542 465.53015137 C438.18589779 469.2890625 438.18589779 469.2890625 435.95703125 469.2890625 C435.72000488 469.85133545 435.48297852 470.4136084 435.23876953 470.99291992 C433.66313824 473.81555083 431.74128767 475.74678256 429.44921875 478.02734375 C428.54429687 478.93033203 427.639375 479.83332031 426.70703125 480.76367188 C426.23394531 481.2305542 425.76085938 481.69743652 425.2734375 482.1784668 C423.85244942 483.58140371 422.43982682 484.99279743 421.02734375 486.40429688 C415.82949686 491.5691066 410.53645963 496.5405632 404.95703125 501.2890625 C403.9928125 502.1346875 403.02859375 502.9803125 402.03515625 503.8515625 C351.10766114 547.7448732 290.48072608 579.43830871 227.95703125 603.2890625 C231.7591846 605.8238314 235.69703313 607.23896973 239.95703125 608.8515625 C240.88056396 609.20379883 241.80409668 609.55603516 242.75561523 609.91894531 C249.00764898 612.26999586 255.3065886 614.40878404 261.66381836 616.45629883 C283.76436735 623.58732355 304.81418845 632.48230619 324.90869141 644.14672852 C326.88531096 645.24906497 328.88739934 646.22586299 330.93359375 647.19140625 C335.7083259 649.54231501 339.84333297 652.65643035 344.08203125 655.8515625 C344.91025391 656.46926514 345.73847656 657.08696777 346.59179688 657.72338867 C353.80834287 663.12674266 360.92436991 668.64907376 367.95703125 674.2890625 C368.90835938 675.04574219 369.8596875 675.80242188 370.83984375 676.58203125 C376.84192899 681.41276937 382.54502841 686.49910583 388.1875 691.73828125 C390.40930443 693.7845976 392.65736863 695.76970673 394.95703125 697.7265625 C398.59107673 700.88325454 402.03228703 704.22132795 405.45703125 707.6015625 C405.9984375 708.12999756 406.53984375 708.65843262 407.09765625 709.20288086 C408.42405658 710.52607629 409.69570015 711.90370051 410.95703125 713.2890625 C410.95703125 713.9490625 410.95703125 714.6090625 410.95703125 715.2890625 C411.52808594 715.53398438 412.09914063 715.77890625 412.6875 716.03125 C419.96614198 720.06519616 425.60347123 728.0087151 430.95703125 734.2890625 C431.74464844 735.1759375 432.53226563 736.0628125 433.34375 736.9765625 C441.0922678 745.7884607 447.7019639 755.29315158 454.33935547 764.95605469 C456.15060027 767.56822724 458.00980695 770.14107207 459.88427734 772.70800781 C474.12599462 792.25045394 486.63670894 813.42487451 496.95703125 835.2890625 C497.27736328 835.96163086 497.59769531 836.63419922 497.92773438 837.32714844 C504.21649953 850.63607589 509.16148259 864.38409929 513.95703125 878.2890625 C514.38870605 879.53494141 514.82038086 880.78082031 515.26513672 882.06445312 C525.085458 910.48042605 525.085458 910.48042605 527.95703125 925.2890625 C528.28960938 926.83400391 528.28960938 926.83400391 528.62890625 928.41015625 C530.44158651 937.63277946 532.72690163 951.21685981 527.38671875 959.55859375 C513.0546122 976.90592491 487.52220073 977.34896029 466.58203125 979.37890625 C455.06007931 980.42772886 443.58404071 980.68633957 432.01953125 980.6640625 C430.98955017 980.66385101 429.95956909 980.66363953 428.89837646 980.66342163 C409.1516973 980.62343786 389.77490886 979.18079032 370.20977783 976.58654785 C367.97386208 976.29128509 365.73691201 976.00545233 363.49951172 975.72167969 C331.60315668 971.64053664 300.83278475 964.5692819 270.15679932 954.97332764 C267.93567824 954.28242038 265.71130481 953.60304283 263.48583984 952.92626953 C241.51893145 946.22275707 221.03854337 937.84227263 200.68743896 927.19390869 C199.06593317 926.34600832 197.44056904 925.50549811 195.81494141 924.66552734 C178.60898272 915.73318432 163.77244544 904.7254147 148.95703125 892.2890625 C148.46693573 891.88187988 147.97684021 891.47469727 147.47189331 891.05517578 C138.66429111 883.72463516 130.38188384 876.00423767 122.32250977 867.86035156 C120.50144038 866.02078791 118.67225621 864.18959109 116.84179688 862.359375 C111.00368199 856.50392519 105.29321072 850.61134195 99.95703125 844.2890625 C98.87694482 843.05038482 97.79489746 841.8134144 96.7109375 840.578125 C85.41725616 827.63226182 75.0894344 814.15917761 64.95703125 800.2890625 C66.43435475 805.79210926 67.94076182 811.28205768 69.5703125 816.7421875 C79.71878672 851.08493295 84.61964988 886.61055997 86.95703125 922.2890625 C87.04380127 923.5579834 87.04380127 923.5579834 87.13232422 924.85253906 C92.90019455 1012.72270606 79.66915281 1100.9068479 4.95703125 1237.2890625 C-6.07923959 1249.46640173 -6.07923959 1249.46640173 -13.35546875 1250.9765625 C-18.84170141 1249.95370556 -21.97731339 1246.97826829 -26.04296875 1243.2890625 C-26.78804687 1242.62519531 -27.533125 1241.96132812 -28.30078125 1241.27734375 C-34.60736003 1235.33333832 -39.35629072 1228.51800785 -44.04296875 1221.2890625 C-44.72166016 1220.25628174 -44.72166016 1220.25628174 -45.4140625 1219.20263672 C-57.69604877 1200.46761497 -68.42582848 1180.97618096 -77.04296875 1160.2890625 C-77.53941895 1159.09909668 -78.03586914 1157.90913086 -78.54736328 1156.68310547 C-98.76697956 1107.9241469 -109.04354262 1057.76751376 -113.04296875 1005.2890625 C-113.11499512 1004.36931641 -113.18702148 1003.44957031 -113.26123047 1002.50195312 C-118.24398983 935.41312948 -111.54654364 864.0420787 -90.04296875 800.2890625 C-90.42026123 800.79912842 -90.79755371 801.30919434 -91.1862793 801.8347168 C-94.30227834 806.02246696 -97.48899004 810.10980085 -100.85546875 814.1015625 C-104.05602004 817.90819226 -107.22619212 821.73598549 -110.35546875 825.6015625 C-123.26811537 841.39123741 -137.02935964 856.33824839 -151.41796875 870.7890625 C-152.52338013 871.90148315 -152.52338013 871.90148315 -153.65112305 873.03637695 C-158.28630374 877.65796934 -163.06952192 882.03530114 -168.04296875 886.2890625 C-169.06398638 887.17817382 -170.08483372 888.06748076 -171.10546875 888.95703125 C-210.00334986 922.32024045 -255.31671629 941.83719603 -304.04296875 956.2890625 C-304.72931396 956.49335876 -305.41565918 956.69765503 -306.12280273 956.90814209 C-332.12799972 964.63148405 -358.18011644 969.95915997 -385.04296875 973.5390625 C-385.98084229 973.6641217 -386.91871582 973.78918091 -387.88500977 973.91802979 C-394.26517329 974.76022591 -400.65104823 975.54175388 -407.04296875 976.2890625 C-408.30361145 976.44113663 -408.30361145 976.44113663 -409.58972168 976.59628296 C-423.92797011 978.29509695 -438.17581001 978.63060542 -452.60693359 978.60473633 C-456.27471752 978.60157822 -459.94168998 978.62513514 -463.609375 978.65039062 C-531.27090774 978.83099679 -531.27090774 978.83099679 -550.984375 960.80078125 C-557.21247011 953.20179613 -556.9598062 944.55771614 -556.04296875 935.2890625 C-552.55994968 909.63807832 -543.77995717 885.21365441 -534.23486328 861.28564453 C-533.12258494 858.48922823 -532.03039028 855.6859666 -530.9453125 852.87890625 C-517.40067699 818.04126282 -497.58209284 787.1699375 -475.43457031 757.17578125 C-474.16823946 755.45890321 -472.91271574 753.73474558 -471.66015625 752.0078125 C-460.03407144 736.17300165 -446.48490351 722.49296735 -432.53149414 708.74584961 C-429.02441692 705.28350113 -425.53337675 701.80668654 -422.09765625 698.2734375 C-416.34568384 692.40321205 -410.54723782 686.8234658 -404.09375 681.71484375 C-401.7689167 679.86628872 -399.48342843 677.9931543 -397.2109375 676.08203125 C-360.25686392 645.06576597 -319.4797169 626.43330166 -274.08032227 611.09375 C-262.2860667 608.06300172 -262.2860667 608.06300172 -252.04296875 602.2890625 C-252.57438477 602.0938501 -253.10580078 601.8986377 -253.65332031 601.69750977 C-300.59786099 584.36220775 -346.17383355 561.17447659 -387.04296875 532.2890625 C-388.18523926 531.48686279 -388.18523926 531.48686279 -389.35058594 530.66845703 C-408.03513843 517.51816628 -426.83349429 503.27296944 -442.625 486.6796875 C-444.01297907 485.17615023 -444.01297907 485.17615023 -446.04296875 484.2890625 C-446.04296875 483.6290625 -446.04296875 482.9690625 -446.04296875 482.2890625 C-446.70296875 482.2890625 -447.36296875 482.2890625 -448.04296875 482.2890625 C-448.04296875 481.6290625 -448.04296875 480.9690625 -448.04296875 480.2890625 C-448.70296875 480.2890625 -449.36296875 480.2890625 -450.04296875 480.2890625 C-451.3125 478.99609375 -451.3125 478.99609375 -452.85546875 477.1015625 C-456.23241882 473.1311735 -459.79894547 469.41127555 -463.48046875 465.7265625 C-464.00552002 465.19716064 -464.53057129 464.66775879 -465.0715332 464.12231445 C-467.95143253 461.25212811 -470.90181191 458.52241506 -473.98828125 455.875 C-478.09666551 452.31636722 -481.79963173 448.47042549 -485.48046875 444.4765625 C-486.13080078 443.77732666 -486.78113281 443.07809082 -487.45117188 442.35766602 C-491.73275084 437.74325286 -495.95084034 433.07630374 -500.13671875 428.375 C-501.88325792 426.46382804 -503.68348267 424.65188311 -505.54296875 422.8515625 C-509.18965418 419.26329079 -512.3417496 415.33295779 -515.54296875 411.34765625 C-517.72565194 408.67727979 -519.96292208 406.0803419 -522.23999023 403.49169922 C-549.0427054 372.8738228 -571.03375334 337.79086185 -583.48046875 298.9765625 C-583.85123535 297.82124023 -583.85123535 297.82124023 -584.22949219 296.64257812 C-588.06685647 284.21630577 -588.72958082 272.19913462 -583.04296875 260.2890625 C-579.04826026 253.22150133 -570.7460558 250.6336545 -563.29296875 248.5390625 C-551.94120566 245.72890576 -541.5443287 246.12360671 -529.98046875 247.4765625 C-528.84851074 247.60893311 -527.71655273 247.74130371 -526.55029297 247.87768555 C-515.66910239 249.22217011 -504.99647667 251.28348208 -494.28515625 253.59765625 C-490.92819884 254.31353753 -487.56513339 254.99163937 -484.19921875 255.6640625 C-467.83853848 258.97818119 -451.96547434 263.29675559 -436.04296875 268.2890625 C-433.94279298 268.93517103 -431.84253383 269.58100861 -429.7421875 270.2265625 C-408.15591539 276.929552 -387.09491681 284.75979227 -366.4375 293.9296875 C-361.4378442 296.13989305 -356.38302949 298.17297172 -351.29296875 300.1640625 C-315.80257268 314.18601741 -279.44436361 330.92082615 -249.04296875 354.2890625 C-248.49060547 354.71219727 -247.93824219 355.13533203 -247.36914062 355.57128906 C-243.21962846 358.76013487 -239.12424561 362.01355425 -235.04296875 365.2890625 C-234.37942383 365.81967285 -233.71587891 366.3502832 -233.03222656 366.89697266 C-215.88372475 380.62787893 -198.88824793 395.1278344 -185.27734375 412.484375 C-182.46764837 416.01123039 -179.51106212 419.3953829 -176.54296875 422.7890625 C-172.73785853 427.14854877 -168.99054681 431.53542597 -165.35546875 436.0390625 C-161.56998611 440.71524693 -157.58445409 445.16957918 -153.5 449.5859375 C-150.6119593 452.76324141 -147.82161905 456.01615303 -145.04296875 459.2890625 C-145.23818115 458.70455322 -145.43339355 458.12004395 -145.63452148 457.51782227 C-149.79806663 444.9716568 -153.69919693 432.36734203 -157.21658325 419.6257019 C-157.591771 418.26744162 -157.9696246 416.90991398 -158.35055542 415.55325317 C-163.42808379 397.41346292 -166.45057543 379.0758901 -168.42602539 360.35766602 C-168.73228791 357.45934685 -169.05168086 354.56269536 -169.37304688 351.66601562 C-178.69355988 266.49958497 -159.0502852 185.09613919 -116.04296875 111.2890625 C-115.13255674 109.71238724 -114.22238575 108.13557277 -113.3125 106.55859375 C-108.14004877 97.63621417 -102.75528942 88.87592849 -97.04296875 80.2890625 C-96.55425293 79.55397461 -96.06553711 78.81888672 -95.56201172 78.06152344 C-86.5885867 64.62487655 -77.28633592 51.65097578 -66.30859375 39.765625 C-64.41721461 37.69815194 -62.57596949 35.60247425 -60.7421875 33.484375 C-21.29042962 -11.67404228 -21.29042962 -11.67404228 0 0 Z " fill="#FEFEFE" transform="translate(711.04296875,74.7109375)"/>
<path d="M0 0 C2.0625 0.4375 2.0625 0.4375 4 1 C4.02283554 1.72202103 4.04567108 2.44404205 4.06919861 3.1879425 C4.28765637 10.0839608 4.50805579 16.97991478 4.73049068 23.87580585 C4.84470676 27.41871844 4.95824232 30.96164977 5.07006836 34.50463867 C5.69457592 54.46018353 5.69457592 54.46018353 6.65768433 74.40164185 C7.16376999 83.49044157 7.35247739 92.5879491 7.5625 101.6875 C7.60587446 103.47982366 7.64949332 105.27214143 7.69335938 107.06445312 C7.79837223 111.37623975 7.90014121 115.68809106 8 120 C9.3756311 120.04193481 9.3756311 120.04193481 10.77905273 120.0847168 C18.0608541 120.43146924 23.85067109 120.9019096 30.0625 124.8125 C30.72024414 125.2048584 31.37798828 125.5972168 32.05566406 126.00146484 C41.45210931 131.84537452 49.97996568 139.03164613 55 149 C55 149.66 55 150.32 55 151 C69.08687043 142.80837925 83.15914901 134.6162688 96.96362305 125.95410156 C101.92835187 122.85550673 106.9377176 119.84649648 112 116.91015625 C112.61150406 116.55536697 113.22300812 116.2005777 113.8530426 115.83503723 C116.35791261 114.38270637 118.8631213 112.93096533 121.36935425 111.48098755 C130.72542995 106.05744964 139.80388359 100.33867877 148.65625 94.11352539 C149.83380859 93.29742798 149.83380859 93.29742798 151.03515625 92.46484375 C151.7094165 91.986521 152.38367676 91.50819824 153.07836914 91.01538086 C155 90 155 90 159 90 C158.66930663 92.887689 158.45946008 94.5409523 156.36791992 96.63061523 C155.66256104 97.10184814 154.95720215 97.57308105 154.23046875 98.05859375 C153.43455322 98.60177246 152.6386377 99.14495117 151.81860352 99.70458984 C150.95033936 100.2764502 150.0820752 100.84831055 149.1875 101.4375 C147.3462054 102.68858316 145.50506369 103.93989136 143.6640625 105.19140625 C142.71950195 105.82578613 141.77494141 106.46016602 140.80175781 107.11376953 C136.5260467 109.99231119 132.28972948 112.92585848 128.0625 115.875 C127.24595947 116.44371826 126.42941895 117.01243652 125.58813477 117.59838867 C118.39602486 122.64544635 111.41474048 127.95013937 104.45141602 133.30664062 C98.98922659 137.5044581 93.46816691 141.58420129 87.83374023 145.546875 C82.32233286 149.43786409 77.0059412 153.56452195 71.73388672 157.77270508 C70 159 70 159 67.62939453 160.2331543 C65.05369902 161.63943647 63.0484355 162.89198663 61 165 C59.92037206 168.82391683 60.18763704 172.38025339 60.5 176.3125 C60.5983062 178.30837455 60.69211753 180.30447598 60.78125 182.30078125 C60.8328125 183.25678223 60.884375 184.2127832 60.9375 185.19775391 C61.02708615 189.21443311 60.5601557 193.02536583 60 197 C60.69222656 197.4964502 60.69222656 197.4964502 61.3984375 198.00292969 C70.29193673 204.38744272 79.14513257 210.81600051 87.88671875 217.40722656 C93.86805836 221.91383628 99.89674609 226.35440834 105.93334961 230.78662109 C109.67107454 233.53435811 113.39943378 236.29174371 117.09375 239.09765625 C124.07072064 244.39672008 131.12511024 249.51643406 138.375 254.4375 C151.77624494 263.55800205 151.77624494 263.55800205 158.1875 268.0625 C158.97237793 268.59866943 159.75725586 269.13483887 160.56591797 269.68725586 C161.28021973 270.19393799 161.99452148 270.70062012 162.73046875 271.22265625 C163.36364014 271.66359619 163.99681152 272.10453613 164.64916992 272.55883789 C166 274 166 274 166 278 C161.25224893 277.48141325 158.02640533 275.25895151 154.1875 272.625 C145.85877532 267.07627745 137.30493355 261.9565862 128.6875 256.875 C125.894109 255.22597456 123.10115645 253.57620899 120.30859375 251.92578125 C119.61293808 251.5146962 118.91728241 251.10361115 118.20054626 250.68006897 C110.01821869 245.83787791 101.89793268 240.89464785 93.77880859 235.94750977 C86.03661803 231.23109939 78.27520247 226.54891723 70.47558594 221.92797852 C65.85702642 219.17555012 61.37813015 216.27658928 56.9519043 213.22338867 C54.91765303 211.8415097 54.91765303 211.8415097 52 211 C51.62875 211.83917969 51.62875 211.83917969 51.25 212.6953125 C46.6836958 221.11443588 39.34630713 226.71163667 31 231 C30.13890625 231.46277344 29.2778125 231.92554688 28.390625 232.40234375 C22.34832745 235.56081747 16.7236703 238.12160863 9.7890625 238.04296875 C8.53867187 238.02878906 7.28828125 238.01460937 6 238 C5.96241577 239.30312134 5.96241577 239.30312134 5.92407227 240.63256836 C5.21023362 265.21225037 4.47837722 289.75757671 2.73510742 314.2902832 C1.74057487 328.8457695 1.35582666 343.41689266 1 358 C-0.32 357.67 -1.64 357.34 -3 357 C-3.03758423 355.16562378 -3.03758423 355.16562378 -3.07592773 353.29418945 C-3.17188974 348.64764281 -3.27160589 344.00118231 -3.37231445 339.35473633 C-3.41496544 337.36419728 -3.45667004 335.37363767 -3.49731445 333.38305664 C-3.71563207 322.72322756 -3.99116329 312.0695412 -4.47265625 301.41796875 C-4.50975204 300.55681961 -4.54684784 299.69567047 -4.58506775 298.8084259 C-4.79532344 294.45705782 -5.25831761 290.29802145 -6 286 C-6.12943363 283.88469413 -6.22151354 281.76685755 -6.28125 279.6484375 C-6.33732422 277.87726563 -6.33732422 277.87726563 -6.39453125 276.0703125 C-6.46506655 273.59896468 -6.53537764 271.12761046 -6.60546875 268.65625 C-6.66154297 266.88894531 -6.66154297 266.88894531 -6.71875 265.0859375 C-6.74904297 264.0139209 -6.77933594 262.9419043 -6.81054688 261.83740234 C-6.9740299 259.38894913 -7.39066155 257.35757035 -8 255 C-8.07766084 253.55901569 -8.10796367 252.11491371 -8.09765625 250.671875 C-8.09443359 249.87265625 -8.09121094 249.0734375 -8.08789062 248.25 C-8.07951172 247.425 -8.07113281 246.6 -8.0625 245.75 C-8.05798828 244.90953125 -8.05347656 244.0690625 -8.04882812 243.203125 C-8.03707961 241.13538599 -8.01914522 239.06768376 -8 237 C-8.72445312 236.96261719 -9.44890625 236.92523437 -10.1953125 236.88671875 C-15.86191152 236.50139002 -20.14903618 236.015464 -25 233 C-25 232.34 -25 231.68 -25 231 C-25.66 230.95875 -26.32 230.9175 -27 230.875 C-36.81347305 228.01273703 -44.50668291 218.15674357 -50 210 C-53.8910068 210.67884898 -56.83099237 212.50334598 -60.20703125 214.5 C-60.80445129 214.85153641 -61.40187134 215.20307281 -62.01739502 215.56526184 C-63.95200863 216.70532328 -65.88228915 217.85250294 -67.8125 219 C-69.14552719 219.78773399 -70.47877976 220.57508671 -71.81225586 221.36206055 C-75.54571386 223.5676671 -79.27362206 225.78245237 -83 228 C-84.24040039 228.73790771 -84.24040039 228.73790771 -85.50585938 229.49072266 C-89.05093307 231.60334911 -92.58658785 233.7310746 -96.11816406 235.86621094 C-98.33303557 237.20065091 -100.55305516 238.52631268 -102.7734375 239.8515625 C-110.8607951 244.68131951 -118.93413114 249.53197178 -126.9375 254.5 C-127.58130615 254.89695068 -128.2251123 255.29390137 -128.88842773 255.70288086 C-131.65028828 257.42807459 -134.20416967 259.17305528 -136.69140625 261.28125 C-139 263 -139 263 -143 263 C-142.94690849 260.33094516 -142.60036446 258.58174515 -140.64599609 256.68798828 C-138.70133753 255.24096369 -136.71344027 253.89347209 -134.6875 252.5625 C-133.12617581 251.49888325 -131.56498321 250.43507333 -130.00390625 249.37109375 C-129.18293457 248.81921387 -128.36196289 248.26733398 -127.51611328 247.69873047 C-123.35286279 244.88795064 -119.23961055 242.00631559 -115.125 239.125 C-114.29025146 238.54194092 -113.45550293 237.95888184 -112.59545898 237.3581543 C-100.73605185 229.04961799 -89.14732369 220.37263256 -77.5625 211.6875 C-76.91361816 211.20104004 -76.26473633 210.71458008 -75.59619141 210.21337891 C-72.52396254 207.90665818 -69.45993246 205.59024516 -66.41015625 203.25390625 C-65.85320068 202.82956299 -65.29624512 202.40521973 -64.72241211 201.96801758 C-63.23149002 200.83119803 -61.74449636 199.68923154 -60.2578125 198.546875 C-58 197 -58 197 -56 197 C-56.309375 195.72125 -56.61875 194.4425 -56.9375 193.125 C-57.74154917 189.54240115 -58.02397727 186.38919829 -57.7578125 182.75 C-57.17271008 174.54782376 -57.17271008 174.54782376 -60.36865234 167.27148438 C-64.31672552 163.77737857 -68.89504521 161.23567399 -73.43212891 158.58837891 C-78.01813196 155.751667 -82.19440118 152.38104168 -86.4375 149.0625 C-95.82232096 141.84616735 -105.35098209 134.85796152 -115 128 C-115.69512695 127.50580566 -116.39025391 127.01161133 -117.10644531 126.50244141 C-119.19437153 125.02019925 -121.28438523 123.54094715 -123.375 122.0625 C-124.05336914 121.58127686 -124.73173828 121.10005371 -125.43066406 120.60424805 C-129.41309331 117.78932285 -133.42785922 115.03137842 -137.4765625 112.3125 C-138.39518066 111.68851318 -139.31379883 111.06452637 -140.26025391 110.42163086 C-142.05382067 109.20455628 -143.85535959 107.99912843 -145.66552734 106.80688477 C-146.47715332 106.25315186 -147.2887793 105.69941895 -148.125 105.12890625 C-148.84945312 104.64494385 -149.57390625 104.16098145 -150.3203125 103.66235352 C-152.45120473 101.5534516 -152.67223965 99.92966852 -153 97 C-147.91303478 97.49987519 -144.54968174 100.01937411 -140.4375 102.8125 C-134.27032114 106.89993241 -128.04715139 110.84377812 -121.6875 114.625 C-114.17114999 119.09891234 -106.6835311 123.6173031 -99.2137146 128.16842651 C-89.39376536 134.14799494 -79.5567621 140.09939354 -69.68045044 145.98547363 C-68.48234523 146.70019328 -67.28513037 147.41640767 -66.08883667 148.13415527 C-64.43418932 149.12628614 -62.77578038 150.1121355 -61.1171875 151.09765625 C-60.17472168 151.65976807 -59.23225586 152.22187988 -58.26123047 152.80102539 C-56.13207622 154.156151 -56.13207622 154.156151 -54 154 C-52.42580515 152.25340718 -52.42580515 152.25340718 -50.8125 150 C-45.38264428 142.84602515 -39.77854718 136.58317342 -32.91796875 130.76171875 C-30.79820274 128.95463947 -30.79820274 128.95463947 -29 126 C-27.68 126 -26.36 126 -25 126 C-25 125.34 -25 124.68 -25 124 C-23.15303651 123.15082138 -21.29699608 122.3213725 -19.4375 121.5 C-17.88869141 120.80390625 -17.88869141 120.80390625 -16.30859375 120.09375 C-12.69029331 118.89761762 -9.78560633 118.80904886 -6 119 C-6.01160156 117.89140625 -6.02320313 116.7828125 -6.03515625 115.640625 C-6.04453792 114.17708502 -6.05363771 112.71354322 -6.0625 111.25 C-6.07087891 110.52039063 -6.07925781 109.79078125 -6.08789062 109.0390625 C-6.11337585 103.43231272 -6.11337585 103.43231272 -5.51147461 101.13720703 C-4.85063006 98.37585465 -4.79894078 95.75187754 -4.71875 92.9140625 C-4.68136719 91.73585938 -4.64398437 90.55765625 -4.60546875 89.34375 C-4.57066406 88.1165625 -4.53585937 86.889375 -4.5 85.625 C-4.43079928 83.20041193 -4.35800378 80.77592323 -4.28125 78.3515625 C-4.25095703 77.27729004 -4.22066406 76.20301758 -4.18945312 75.09619141 C-4 72 -4 72 -3.515625 69.19189453 C-2.83713279 64.99179645 -2.65285985 60.82506466 -2.46875 56.578125 C-2.42721802 55.66371643 -2.38568604 54.74930786 -2.34289551 53.80718994 C-1.83888873 42.11715668 -1.6495154 30.4190986 -1.44775391 18.72070312 C-1.39638978 15.80849873 -1.33918103 12.89645501 -1.28125 9.984375 C-1.26767456 9.09296814 -1.25409912 8.20156128 -1.2401123 7.28314209 C-1.11325102 1.11325102 -1.11325102 1.11325102 0 0 Z " fill="#C25962" transform="translate(702,514)"/>
<path d="M0 0 C0.33 0 0.66 0 1 0 C1 5.61 1 11.22 1 17 C-5.60506245 19.27387396 -12.24567727 21.21988878 -19 23 C-19 22.34 -19 21.68 -19 21 C-17.15303651 20.15082138 -15.29699608 19.3213725 -13.4375 18.5 C-12.40496094 18.0359375 -11.37242187 17.571875 -10.30859375 17.09375 C-7 16 -7 16 0 16 C0 10.72 0 5.44 0 0 Z " fill="#DDA2A8" transform="translate(696,617)"/>
<path d="M0 0 C6.0143638 4.57091649 9.42518793 9.37415784 13 16 C12.01 16 11.02 16 10 16 C8.5 14.42578125 8.5 14.42578125 7 12.3125 C6.48050781 11.58289063 5.96101562 10.85328125 5.42578125 10.1015625 C3.17877426 6.78953576 1.26866825 3.80600474 0 0 Z " fill="#DB9CA2" transform="translate(745,649)"/>
<path d="M0 0 C2.27244276 0.45028588 4.54291877 0.91050617 6.8125 1.375 C8.07707031 1.63023437 9.34164062 1.88546875 10.64453125 2.1484375 C14 3 14 3 17 5 C10.67721029 4.67373505 5.44535609 4.38495108 0 1 C0 0.67 0 0.34 0 0 Z " fill="#DDA2A7" transform="translate(677,746)"/>
<path d="M0 0 C0.66 0.33 1.32 0.66 2 1 C0.35 2.65 -1.3 4.3 -3 6 C-2.34 6.66 -1.68 7.32 -1 8 C-2.32 8 -3.64 8 -5 8 C-4.64950425 4.75791433 -4.43778819 3.38472296 -1.9375 1.1875 C-1.298125 0.795625 -0.65875 0.40375 0 0 Z " fill="#D07E86" transform="translate(564,769)"/>
</svg>
