<?xml version="1.0" encoding="UTF-8"?>
<svg version="1.1" xmlns="http://www.w3.org/2000/svg" width="512" height="512">
<path d="M0 0 C6.77507702 5.7485502 6.77507702 5.7485502 7.30078125 11.23828125 C7.32527344 12.17027344 7.34976563 13.10226562 7.375 14.0625 C7.43107422 15.44888672 7.43107422 15.44888672 7.48828125 16.86328125 C6.63339427 22.65925808 2.31046603 26.72731873 -1.4375 31 C-8.024327 38.72651977 -13.52134883 47.17863944 -18.9375 55.75 C-19.52192871 56.67449951 -19.52192871 56.67449951 -20.11816406 57.61767578 C-46.73706253 100.36960564 -53.26262134 154.63988768 -42.34619141 203.26416016 C-36.40865463 228.0209167 -26.11009445 252.2100253 -10.9375 272.75 C-10.18210938 273.78769531 -9.42671875 274.82539063 -8.6484375 275.89453125 C-2.62009874 284.02921541 4.07585614 291.43351459 11.0625 298.75 C11.66449219 299.40484375 12.26648438 300.0596875 12.88671875 300.734375 C43.79840869 333.43691851 93.93656207 354.23407249 138.39404297 355.87280273 C175.60026979 356.6909319 211.07495386 350.71549834 244.0625 332.75 C244.96258789 332.26877686 244.96258789 332.26877686 245.88085938 331.77783203 C258.54827497 324.97790256 270.01873541 316.8255604 280.80102539 307.32885742 C286.50380041 302.34087663 289.93398761 301.34642263 297.4375 301.49609375 C302.64251997 301.9995555 305.7231707 304.93362366 309.0625 308.75 C311.91155344 317.29716031 309.65295554 325.7291192 306.75 333.9375 C306.39462158 334.96705811 306.03924316 335.99661621 305.6730957 337.05737305 C294.14554978 369.5252718 276.4345715 398.99220272 253.19140625 424.3984375 C251.38425403 426.39459463 249.65892854 428.43076365 247.9375 430.5 C228.35461335 452.88690275 202.3178928 470.23831248 176.0625 483.75 C175.37800781 484.10255859 174.69351562 484.45511719 173.98828125 484.81835938 C158.56875113 492.64560657 142.32052137 498.54112696 125.625 503 C124.80628418 503.22187988 123.98756836 503.44375977 123.14404297 503.67236328 C120.12981705 504.43919515 117.10465981 505.10183438 114.0625 505.75 C113.32460236 505.9148288 112.58670471 506.07965759 111.82644653 506.2494812 C95.6182434 509.79198609 79.61381136 510.40988899 63.09448242 510.32641602 C60.28995733 510.31271048 57.48679687 510.31953528 54.68237305 510.34692383 C-9.54886524 510.97172085 -71.38075754 486.23132334 -118.25390625 442.24609375 C-120.54034973 440.11940178 -122.86737084 438.07927439 -125.25 436.0625 C-128.51202617 433.23004106 -131.32813412 430.17727151 -134.11328125 426.87890625 C-135.34669972 425.43947784 -136.61663567 424.03067879 -137.91796875 422.65234375 C-177.07090747 381.07463287 -201.67796677 319.7378109 -202.17578125 262.66015625 C-202.1855751 261.72615997 -202.19536896 260.7921637 -202.20545959 259.8298645 C-202.37519545 239.44867538 -202.21311095 219.76510139 -197.9375 199.75 C-197.72851074 198.71794434 -197.51952148 197.68588867 -197.30419922 196.62255859 C-189.29721946 157.64326162 -172.37549574 119.52633507 -146.9375 88.75 C-146.28467041 87.95505127 -146.28467041 87.95505127 -145.61865234 87.14404297 C-142.4493752 83.29506478 -139.21728601 79.50513416 -135.9375 75.75 C-135.49825195 75.2461377 -135.05900391 74.74227539 -134.60644531 74.22314453 C-105.45603439 41.02106419 -66.9966582 16.59921697 -25.375 2.1875 C-24.40030762 1.84058105 -23.42561523 1.49366211 -22.42138672 1.13623047 C-15.18609773 -1.271419 -7.2709113 -3.09400481 0 0 Z " fill="#000000" transform="translate(201.9375,2.25)"/>
<path d="M0 0 C7.02917081 4.09276202 9.807936 12.16027131 12.40625 19.49609375 C18.672496 36.10415738 25.54658845 44.77067762 41.87866211 52.44363403 C46.83519982 54.67741129 51.81833409 56.87488642 56.89822388 58.81434631 C62.05546193 60.87216033 64.69968311 63.03447265 67.875 67.625 C69.71596186 73.14788559 69.78511456 78.61516369 67.375 83.9375 C62.88935929 88.75956376 57.81442802 91.36888475 51.68762207 93.57995605 C35.095296 99.58819329 24.18396201 105.86152726 16.13989258 122.08618164 C13.44292052 127.85640822 10.8714448 133.70860114 8.63456726 139.67376709 C6.25858243 145.73791654 3.20459026 148.64524363 -2.4375 152 C-7.82216036 153.2522466 -12.51395582 152.41532356 -17.4375 150 C-22.44597892 145.57390235 -24.77228617 139.346494 -27.34765625 133.29296875 C-35.43026461 113.64019188 -35.43026461 113.64019188 -51.74291992 101.26733398 C-53.35036994 100.66582498 -54.9674217 100.08939382 -56.59277344 99.53808594 C-61.23743953 97.86328347 -65.5903058 95.58146297 -70 93.375 C-70.83821289 92.98521973 -71.67642578 92.59543945 -72.54003906 92.19384766 C-77.71588094 89.70957047 -80.85102745 87.37546998 -84.125 82.625 C-85.95215217 77.14354349 -85.76573426 72.34333279 -83.75 66.9375 C-79.42714399 60.41134588 -70.85495551 57.4186951 -63.9375 54.42578125 C-45.48472873 46.71405415 -45.48472873 46.71405415 -33.93408203 31.12988281 C-33.304278 29.50308031 -32.69608283 27.86776019 -32.10888672 26.22509766 C-30.27175458 21.37014547 -27.86403585 16.80206601 -25.5 12.1875 C-25.07952393 11.29337402 -24.65904785 10.39924805 -24.22583008 9.47802734 C-21.64478901 4.30199632 -19.4410073 1.52509521 -14.07666016 -0.78735352 C-9.0983443 -2.28632853 -4.80908436 -1.91997665 0 0 Z " fill="#000000" transform="translate(330.125,114.375)"/>
<path d="M0 0 C3.51520834 2.3707219 5.79390381 5.02530762 7.6875 8.8125 C7.77150529 10.40697464 7.79477467 12.00490545 7.78515625 13.6015625 C7.78193359 14.54257812 7.77871094 15.48359375 7.77539062 16.453125 C7.76282227 17.93039063 7.76282227 17.93039063 7.75 19.4375 C7.74548828 20.43007813 7.74097656 21.42265625 7.73632812 22.4453125 C7.72452145 24.9011016 7.708054 27.35677104 7.6875 29.8125 C8.29223145 29.79155273 8.89696289 29.77060547 9.52001953 29.74902344 C12.28400771 29.66541055 15.04772913 29.61369946 17.8125 29.5625 C18.76382813 29.52898438 19.71515625 29.49546875 20.6953125 29.4609375 C26.73168815 29.37709895 30.08170935 29.81292899 34.6875 33.8125 C38.41934027 38.05907686 39.05035286 41.96579926 38.9609375 47.46484375 C38.5122801 51.31688801 37.14699806 53.86430689 34.6875 56.8125 C28.85232294 61.05971872 24.33701702 61.32781669 17.25 61.0625 C15.86651367 61.03542969 15.86651367 61.03542969 14.45507812 61.0078125 C12.19811267 60.96103601 9.94337388 60.89551871 7.6875 60.8125 C7.71368408 61.41199463 7.73986816 62.01148926 7.7668457 62.62915039 C7.87156219 65.37749425 7.93605622 68.12541739 8 70.875 C8.04189453 71.81794922 8.08378906 72.76089844 8.12695312 73.73242188 C8.24432283 80.46944308 7.27234026 83.80843632 2.6875 88.8125 C-2.06232013 91.53924859 -5.87167777 92.48067115 -11.3125 91.8125 C-16.67263737 90.11982504 -19.80122353 88.04700823 -22.53833008 82.94116211 C-24.02859262 78.84352757 -23.72356858 74.67738952 -23.5625 70.375 C-23.54445313 69.45267578 -23.52640625 68.53035156 -23.5078125 67.58007812 C-23.46103601 65.32311267 -23.39551871 63.06837388 -23.3125 60.8125 C-23.88170166 60.83344727 -24.45090332 60.85439453 -25.03735352 60.87597656 C-27.64971816 60.95980994 -30.26179884 61.01136818 -32.875 61.0625 C-34.21788086 61.11277344 -34.21788086 61.11277344 -35.58789062 61.1640625 C-41.73815381 61.25417625 -45.33143571 60.50289789 -50.3125 56.8125 C-53.13296299 53.38411767 -54.19109741 49.66231813 -54.8125 45.3125 C-53.9891259 39.54888132 -52.19379137 35.50625758 -47.84375 31.58984375 C-42.953493 29.12848652 -38.82363522 29.37274456 -33.4375 29.5625 C-32.46296875 29.58054687 -31.4884375 29.59859375 -30.484375 29.6171875 C-28.09272193 29.66408266 -25.70313403 29.72969093 -23.3125 29.8125 C-23.33344727 29.24329834 -23.35439453 28.67409668 -23.37597656 28.08764648 C-23.45980994 25.47528184 -23.51136818 22.86320116 -23.5625 20.25 C-23.59601563 19.35474609 -23.62953125 18.45949219 -23.6640625 17.53710938 C-23.75431758 11.37720026 -22.9608403 7.82488882 -19.3125 2.8125 C-13.45270547 -2.07995494 -7.08301812 -2.53919517 0 0 Z " fill="#000000" transform="translate(452.3125,23.1875)"/>
</svg>
