<?xml version="1.0" encoding="UTF-8"?>
<svg version="1.1" xmlns="http://www.w3.org/2000/svg" width="512" height="512">
<path d="M0 0 C29.83024964 25.23300375 51.49594524 60.51753081 55 100 C57.19487469 138.72008698 50.3475301 177.21410057 25 208 C24.5771875 208.51997559 24.154375 209.03995117 23.71875 209.57568359 C1.65843777 236.6262014 -26.09768954 254.40988755 -60 263 C-61.2684375 263.3403125 -62.536875 263.680625 -63.84375 264.03125 C-102.7923455 272.72225891 -144.10963794 262.95056012 -177.30859375 241.90234375 C-179.96445212 240.025126 -182.48907468 238.06668469 -185 236 C-185.7719873 235.37375732 -185.7719873 235.37375732 -186.55957031 234.73486328 C-211.62143406 214.34915864 -230.78184259 187.61291207 -239 156 C-239.19464844 155.26136719 -239.38929688 154.52273438 -239.58984375 153.76171875 C-245.10879303 131.7219932 -245.86304814 105.03940987 -240 83 C-239.74259033 81.97712891 -239.74259033 81.97712891 -239.47998047 80.93359375 C-230.01968987 43.66731944 -206.7921484 10.43039144 -174 -10 C-119.96088481 -42.0647032 -49.57614653 -40.84158852 0 0 Z " fill="#000000" transform="translate(350,139)"/>
<path d="M0 0 C2.6462777 1.32313885 2.70703121 2.38494721 3.70483398 5.13549805 C4.02990433 6.02060562 4.35497467 6.9057132 4.68989563 7.81764221 C5.03844101 8.78918747 5.38698639 9.76073273 5.74609375 10.76171875 C6.11353195 11.76778671 6.48097015 12.77385468 6.85954285 13.81040955 C8.05925037 17.10025482 9.24870425 20.39369756 10.4375 23.6875 C11.25318367 25.93493633 12.06942806 28.18216924 12.88623047 30.42919922 C14.10893265 33.79322917 15.33105349 37.15745733 16.55023193 40.52276611 C18.87176529 46.92551928 21.22784401 53.31321737 23.63671875 59.68359375 C24.15651313 61.06609379 24.67613411 62.44865904 25.19555664 63.83129883 C26.12033232 66.29258659 27.05722168 68.74797922 28.00170898 71.2019043 C30.53607753 77.9775641 32.41003332 83.08324078 29.875 90.125 C27.07984174 94.41090933 23.95224283 97.34925239 19 99 C12.95805075 99.48931279 8.46785843 98.05716758 2.921875 95.95703125 C2.04890274 95.63680496 1.17593048 95.31657867 0.27650452 94.98664856 C-2.56983004 93.93950664 -5.40989566 92.87641134 -8.25 91.8125 C-10.21491633 91.0848713 -12.18017042 90.35815405 -14.14575195 89.63232422 C-18.14640729 88.15315013 -22.1445746 86.66750499 -26.14111328 85.17724609 C-31.63583408 83.13085901 -37.14244296 81.11835687 -42.65234375 79.11328125 C-45.06582648 78.23130565 -47.47890992 77.3482511 -49.89172363 76.46444702 C-51.41940498 75.90585274 -52.94780656 75.34922418 -54.47692871 74.79458618 C-56.58485936 74.02874255 -58.68926739 73.25393421 -60.79296875 72.4765625 C-61.9739917 72.04424316 -63.15501465 71.61192383 -64.37182617 71.16650391 C-67 70 -67 70 -68 68 C-66.45892578 67.07380859 -66.45892578 67.07380859 -64.88671875 66.12890625 C-56.39193637 60.96232655 -48.48341281 55.5872654 -41 49 C-40.16082031 48.27039063 -39.32164062 47.54078125 -38.45703125 46.7890625 C-35.93624897 44.56139444 -33.46147923 42.29293845 -31 40 C-30.21109375 39.27683594 -29.4221875 38.55367188 -28.609375 37.80859375 C-17.11983841 26.85647097 -7.89558678 13.71589848 0 0 Z " fill="#000000" transform="translate(411,343)"/>
<path d="M0 0 C2.82760655 3.43441592 5.33637886 6.95237142 7.75 10.6875 C14.02758461 20.1676971 21.25324427 28.69245219 29 37 C29.72445312 37.79019531 30.44890625 38.58039063 31.1953125 39.39453125 C42.1454523 50.88289826 55.28611786 60.10557393 69 68 C67.67686115 70.6462777 66.61505279 70.70703121 63.86450195 71.70483398 C62.97939438 72.02990433 62.0942868 72.35497467 61.18235779 72.68989563 C60.21081253 73.03844101 59.23926727 73.38698639 58.23828125 73.74609375 C57.23221329 74.11353195 56.22614532 74.48097015 55.18959045 74.85954285 C51.89974518 76.05925037 48.60630244 77.24870425 45.3125 78.4375 C43.06506367 79.25318367 40.81783076 80.06942806 38.57080078 80.88623047 C35.20677083 82.10893265 31.84254267 83.33105349 28.47723389 84.55023193 C22.07448072 86.87176529 15.68678263 89.22784401 9.31640625 91.63671875 C7.93390621 92.15651313 6.55134096 92.67613411 5.16870117 93.19555664 C2.70741341 94.12033232 0.25202078 95.05722168 -2.2019043 96.00170898 C-8.9775641 98.53607753 -14.08324078 100.41003332 -21.125 97.875 C-25.41090933 95.07984174 -28.34925239 91.95224283 -30 87 C-30.4893113 80.95806922 -29.05719403 76.46783784 -26.95703125 70.921875 C-26.63675964 70.04890274 -26.31648804 69.17593048 -25.98651123 68.27650452 C-24.93927937 65.43022429 -23.87616934 62.59017372 -22.8125 59.75 C-22.08555261 57.78510224 -21.35956822 55.81984794 -20.63452148 53.85424805 C-19.15656796 49.85340827 -17.67197295 45.85513148 -16.18164062 41.85888672 C-14.13182317 36.36073271 -12.10254641 30.85520121 -10.078125 25.34765625 C-8.90729772 22.16888393 -7.73505709 18.99063457 -6.5625 15.8125 C-6.28419342 15.05698853 -6.00588684 14.30147705 -5.71914673 13.52307129 C-4.94203016 11.41661166 -4.16113404 9.31159727 -3.37890625 7.20703125 C-2.9413501 6.0260083 -2.50379395 4.84498535 -2.05297852 3.62817383 C-1 1 -1 1 0 0 Z " fill="#000000" transform="translate(100,343)"/>
<path d="M0 0 C4.28590933 2.79515826 7.22425239 5.92275717 8.875 10.875 C9.20673774 16.12751416 8.4114542 20.00454856 6.59375 24.921875 C6.2258007 25.93162636 6.2258007 25.93162636 5.85041809 26.96177673 C5.03627698 29.18707262 4.20601983 31.40595772 3.375 33.625 C2.79757045 35.18954629 2.22101006 36.75441361 1.64526367 38.31958008 C0.40323955 41.68959498 -0.84614712 45.05676877 -2.10009766 48.42236328 C-3.87655368 53.19575374 -5.62988923 57.97734563 -7.3777771 62.76126099 C-8.82777452 66.72729466 -10.2846477 70.69077878 -11.74316406 74.65368652 C-12.45621087 76.59332035 -13.16731099 78.53367092 -13.87646484 80.47473145 C-14.87287419 83.19804011 -15.87851906 85.91775684 -16.88671875 88.63671875 C-17.18515182 89.45792709 -17.4835849 90.27913544 -17.7910614 91.12522888 C-19.89649054 96.76074527 -19.89649054 96.76074527 -22.125 97.875 C-22.74246094 96.84761719 -23.35992187 95.82023437 -23.99609375 94.76171875 C-29.16267345 86.26693637 -34.5377346 78.35841281 -41.125 70.875 C-41.85460937 70.03582031 -42.58421875 69.19664062 -43.3359375 68.33203125 C-45.56360556 65.81124897 -47.83206155 63.33647923 -50.125 60.875 C-50.84816406 60.08609375 -51.57132812 59.2971875 -52.31640625 58.484375 C-63.26852903 46.99483841 -76.40910152 37.77058678 -90.125 29.875 C-88.80186115 27.2287223 -87.74005279 27.16796879 -84.98950195 26.17016602 C-83.66184059 25.6825605 -83.66184059 25.6825605 -82.30735779 25.18510437 C-81.33581253 24.83655899 -80.36426727 24.48801361 -79.36328125 24.12890625 C-78.35721329 23.76146805 -77.35114532 23.39402985 -76.31459045 23.01545715 C-73.02474518 21.81574963 -69.73130244 20.62629575 -66.4375 19.4375 C-64.19006367 18.62181633 -61.94283076 17.80557194 -59.69580078 16.98876953 C-56.33177083 15.76606735 -52.96754267 14.54394651 -49.60223389 13.32476807 C-43.19948072 11.00323471 -36.81178263 8.64715599 -30.44140625 6.23828125 C-29.05890621 5.71848687 -27.67634096 5.19886589 -26.29370117 4.67944336 C-23.83241341 3.75466768 -21.37702078 2.81777832 -18.9230957 1.87329102 C-12.1474359 -0.66107753 -7.04175922 -2.53503332 0 0 Z " fill="#000000" transform="translate(433.125,71.125)"/>
<path d="M0 0 C0.67316757 0.24529953 1.34633514 0.49059906 2.03990173 0.74333191 C4.26519762 1.55747302 6.48408272 2.38773017 8.703125 3.21875 C10.26767129 3.79617955 11.83253861 4.37273994 13.39770508 4.94848633 C16.76771998 6.19051045 20.13489377 7.43989712 23.50048828 8.69384766 C28.27387874 10.47030368 33.05547063 12.22363923 37.83938599 13.9715271 C41.80541966 15.42152452 45.76890378 16.8783977 49.73181152 18.33691406 C51.67144535 19.04996087 53.61179592 19.76106099 55.55285645 20.47021484 C58.27616511 21.46662419 60.99588184 22.47226906 63.71484375 23.48046875 C64.53605209 23.77890182 65.35726044 24.0773349 66.20335388 24.3848114 C71.83887027 26.49024054 71.83887027 26.49024054 72.953125 28.71875 C71.92574219 29.33621094 70.89835937 29.95367187 69.83984375 30.58984375 C61.34506137 35.75642345 53.43653781 41.1314846 45.953125 47.71875 C45.11394531 48.44835937 44.27476562 49.17796875 43.41015625 49.9296875 C40.88937397 52.15735556 38.41460423 54.42581155 35.953125 56.71875 C35.16421875 57.44191406 34.3753125 58.16507813 33.5625 58.91015625 C22.07296341 69.86227903 12.84871178 83.00285152 4.953125 96.71875 C2.3068473 95.39561115 2.24609379 94.33380279 1.24829102 91.58325195 C0.92322067 90.69814438 0.59815033 89.8130368 0.26322937 88.90110779 C-0.08531601 87.92956253 -0.43386139 86.95801727 -0.79296875 85.95703125 C-1.16040695 84.95096329 -1.52784515 83.94489532 -1.90641785 82.90834045 C-3.10612537 79.61849518 -4.29557925 76.32505244 -5.484375 73.03125 C-6.30005867 70.78381367 -7.11630306 68.53658076 -7.93310547 66.28955078 C-9.15580765 62.92552083 -10.37792849 59.56129267 -11.59710693 56.19598389 C-13.91864029 49.79323072 -16.27471901 43.40553263 -18.68359375 37.03515625 C-19.20338813 35.65265621 -19.72300911 34.27009096 -20.24243164 32.88745117 C-21.16720732 30.42616341 -22.10409668 27.97077078 -23.04858398 25.5168457 C-25.58295253 18.7411859 -27.45690832 13.63550922 -24.921875 6.59375 C-18.65218815 -3.01976983 -10.33751257 -3.82129198 0 0 Z " fill="#000000" transform="translate(96.046875,72.28125)"/>
<path d="M0 0 C4.66497874 0.65200845 8.64189159 2.5176877 12.859375 4.5078125 C13.62925751 4.86550217 14.39914001 5.22319183 15.19235229 5.59172058 C17.71397477 6.76439206 20.23204941 7.94446738 22.75 9.125 C26.2723451 10.76927564 29.79617039 12.41036118 33.3203125 14.05078125 C34.65616898 14.67345131 34.65616898 14.67345131 36.01901245 15.30870056 C41.90325789 18.04517043 47.81145036 20.72143229 53.7421875 23.35546875 C55.25816209 24.03168432 56.77411318 24.70795258 58.29003906 25.38427734 C60.43859502 26.34229743 62.58841935 27.29651296 64.74401855 28.23858643 C66.72199879 29.10343258 68.69337696 29.98196706 70.6640625 30.86328125 C71.77217285 31.35094971 72.8802832 31.83861816 74.02197266 32.34106445 C78.42066762 34.79139502 81.22536538 37.83804808 84 42 C84.3359375 44.70703125 84.3359375 44.70703125 84.375 47.8125 C84.40335938 48.82957031 84.43171875 49.84664063 84.4609375 50.89453125 C83.86594264 54.90318304 82.51626122 56.82385692 80 60 C77.61900694 61.49737767 75.47909517 62.67286509 72.9453125 63.8203125 C72.24673126 64.15273956 71.54815002 64.48516663 70.82839966 64.82766724 C68.55969487 65.90180998 66.28060143 66.95138567 64 68 C62.46398313 68.71988801 60.92850378 69.44092399 59.39355469 70.16308594 C54.56566461 72.42587635 49.72161338 74.65266025 44.875 76.875 C43.15261967 77.66639596 41.43028935 78.45790078 39.70800781 79.24951172 C36.33892892 80.79745719 32.96903519 82.3436105 29.59863281 83.88867188 C25.62113365 85.71301706 21.64953763 87.54969876 17.6796875 89.390625 C15.70323902 90.30233054 13.72668814 91.21381417 11.75 92.125 C10.87714355 92.53218262 10.00428711 92.93936523 9.10498047 93.35888672 C8.32268066 93.71740723 7.54038086 94.07592773 6.734375 94.4453125 C5.74775879 94.90188232 5.74775879 94.90188232 4.74121094 95.36767578 C3 96 3 96 0 96 C0.10957031 95.36578125 0.21914063 94.7315625 0.33203125 94.078125 C0.68303284 92.01206689 1.02259964 89.94405688 1.35546875 87.875 C1.80128453 85.19470152 2.28073384 82.54001165 2.80078125 79.875 C6.7556265 58.42514988 6.5644151 35.41194926 2.38916016 14.015625 C1.79502511 10.93834835 1.31027491 7.84408289 0.8125 4.75 C0.54345645 3.16636156 0.2734652 1.58288089 0 0 Z " fill="#000000" transform="translate(428,208)"/>
<path d="M0 0 C0.63421875 0.10957031 1.2684375 0.21914063 1.921875 0.33203125 C3.98793311 0.68303284 6.05594312 1.02259964 8.125 1.35546875 C10.80529848 1.80128453 13.45998835 2.28073384 16.125 2.80078125 C37.57485012 6.7556265 60.58805074 6.5644151 81.984375 2.38916016 C85.06165165 1.79502511 88.15591711 1.31027491 91.25 0.8125 C92.83363844 0.54345645 94.41711911 0.2734652 96 0 C95.34799155 4.66497874 93.4823123 8.64189159 91.4921875 12.859375 C91.13449783 13.62925751 90.77680817 14.39914001 90.40827942 15.19235229 C89.23560794 17.71397477 88.05553262 20.23204941 86.875 22.75 C85.23072436 26.2723451 83.58963882 29.79617039 81.94921875 33.3203125 C81.32654869 34.65616898 81.32654869 34.65616898 80.69129944 36.01901245 C77.95482957 41.90325789 75.27856771 47.81145036 72.64453125 53.7421875 C71.96831568 55.25816209 71.29204742 56.77411318 70.61572266 58.29003906 C69.65770257 60.43859502 68.70348704 62.58841935 67.76141357 64.74401855 C66.89656742 66.72199879 66.01803294 68.69337696 65.13671875 70.6640625 C64.64905029 71.77217285 64.16138184 72.8802832 63.65893555 74.02197266 C61.20860498 78.42066762 58.16195192 81.22536538 54 84 C51.29296875 84.3359375 51.29296875 84.3359375 48.1875 84.375 C47.17042969 84.40335938 46.15335938 84.43171875 45.10546875 84.4609375 C41.09447698 83.86559533 39.17710381 82.51978954 36 80 C34.491982 77.59610653 33.30298024 75.4313512 32.14453125 72.875 C31.81097122 72.17415283 31.47741119 71.47330566 31.13374329 70.7512207 C30.07201682 68.5084051 29.03499203 66.25526003 28 64 C27.31649658 62.53733757 26.6320943 61.07509484 25.94677734 59.61328125 C23.8344018 55.08728605 21.75895916 50.54483353 19.6875 46 C18.94624243 44.37767667 18.20478506 42.75544462 17.46313477 41.13330078 C16.35387374 38.70703936 15.2448173 36.28068738 14.13694763 33.85379028 C11.92744693 29.01621061 9.69930775 24.18783204 7.453125 19.3671875 C6.93661377 18.25472656 6.42010254 17.14226562 5.88793945 15.99609375 C4.94546288 13.96804787 3.99891031 11.94188945 3.04760742 9.91796875 C2.63873291 9.03496094 2.2298584 8.15195312 1.80859375 7.2421875 C1.45595459 6.4879248 1.10331543 5.73366211 0.73999023 4.95654297 C0 3 0 3 0 0 Z " fill="#000000" transform="translate(208,428)"/>
<path d="M0 0 C1.52560547 -0.04253906 1.52560547 -0.04253906 3.08203125 -0.0859375 C7.09068304 0.50905736 9.01135692 1.85873878 12.1875 4.375 C13.68487767 6.75599306 14.86036509 8.89590483 16.0078125 11.4296875 C16.34023956 12.12826874 16.67266663 12.82684998 17.01516724 13.54660034 C18.08930998 15.81530513 19.13888567 18.09439857 20.1875 20.375 C20.90738801 21.91101687 21.62842399 23.44649622 22.35058594 24.98144531 C24.61337635 29.80933539 26.84016025 34.65338662 29.0625 39.5 C29.85389596 41.22238033 30.64540078 42.94471065 31.43701172 44.66699219 C32.98495719 48.03607108 34.5311105 51.40596481 36.07617188 54.77636719 C37.90051706 58.75386635 39.73719876 62.72546237 41.578125 66.6953125 C42.48983054 68.67176098 43.40131417 70.64831186 44.3125 72.625 C44.71968262 73.49785645 45.12686523 74.37071289 45.54638672 75.27001953 C45.90490723 76.05231934 46.26342773 76.83461914 46.6328125 77.640625 C47.08938232 78.62724121 47.08938232 78.62724121 47.55517578 79.63378906 C48.1875 81.375 48.1875 81.375 48.1875 84.375 C47.55328125 84.26542969 46.9190625 84.15585938 46.265625 84.04296875 C44.19830031 83.69175199 42.1289794 83.35222906 40.05859375 83.01953125 C37.39017064 82.57524284 34.74979904 82.09646971 32.09765625 81.57421875 C8.8011461 77.24437262 -15.39318539 78.10959634 -38.51660156 82.91748047 C-41.60297678 83.53252377 -44.69237262 83.96895603 -47.8125 84.375 C-47.1568899 79.48179205 -45.140978 75.42031269 -43.05078125 71.0078125 C-42.668116 70.18797882 -42.28545074 69.36814514 -41.89118958 68.52346802 C-40.64078455 65.84661061 -39.38307768 63.17325887 -38.125 60.5 C-36.38646652 56.79039506 -34.65153799 53.07911463 -32.91796875 49.3671875 C-32.26671021 47.97415405 -32.26671021 47.97415405 -31.60229492 46.55297852 C-28.87802291 40.70999061 -26.21582674 34.84346062 -23.61328125 28.9453125 C-23.13641624 27.86873886 -23.13641624 27.86873886 -22.6499176 26.77041626 C-20.85754141 22.72132755 -20.85754141 22.72132755 -19.08926392 18.66168213 C-18.30121286 16.83783915 -17.49858503 15.0203154 -16.6953125 13.203125 C-16.25590332 12.1915332 -15.81649414 11.17994141 -15.36376953 10.13769531 C-11.78228204 3.75933326 -7.3287167 0.09218512 0 0 Z " fill="#000000" transform="translate(255.8125,-0.375)"/>
<path d="M0 0 C-0.10957031 0.63421875 -0.21914062 1.2684375 -0.33203125 1.921875 C-0.68303284 3.98793311 -1.02259964 6.05594312 -1.35546875 8.125 C-1.80128453 10.80529848 -2.28073384 13.45998835 -2.80078125 16.125 C-6.7556265 37.57485012 -6.5644151 60.58805074 -2.38916016 81.984375 C-1.79502511 85.06165165 -1.31027491 88.15591711 -0.8125 91.25 C-0.54345645 92.83363844 -0.2734652 94.41711911 0 96 C-4.89320795 95.3443899 -8.95468731 93.328478 -13.3671875 91.23828125 C-14.18702118 90.855616 -15.00685486 90.47295074 -15.85153198 90.07868958 C-18.52838939 88.82828455 -21.20174113 87.57057768 -23.875 86.3125 C-27.58460494 84.57396652 -31.29588537 82.83903799 -35.0078125 81.10546875 C-35.93650146 80.67129639 -36.86519043 80.23712402 -37.82202148 79.78979492 C-43.66500939 77.06552291 -49.53153938 74.40332674 -55.4296875 71.80078125 C-56.14740326 71.48287125 -56.86511902 71.16496124 -57.60458374 70.8374176 C-61.65367245 69.04504141 -61.65367245 69.04504141 -65.71331787 67.27676392 C-67.53716085 66.48871286 -69.3546846 65.68608503 -71.171875 64.8828125 C-72.6892627 64.22369873 -72.6892627 64.22369873 -74.23730469 63.55126953 C-78.51940638 61.14684446 -81.29510586 58.05734121 -84 54 C-84.3359375 51.29296875 -84.3359375 51.29296875 -84.375 48.1875 C-84.40335937 47.17042969 -84.43171875 46.15335938 -84.4609375 45.10546875 C-83.86559533 41.09447698 -82.51978954 39.17710381 -80 36 C-77.59610653 34.491982 -75.4313512 33.30298024 -72.875 32.14453125 C-71.82372925 31.64419121 -71.82372925 31.64419121 -70.7512207 31.13374329 C-68.5084051 30.07201682 -66.25526003 29.03499203 -64 28 C-62.53733757 27.31649658 -61.07509484 26.6320943 -59.61328125 25.94677734 C-55.08728605 23.8344018 -50.54483353 21.75895916 -46 19.6875 C-44.37767667 18.94624243 -42.75544462 18.20478506 -41.13330078 17.46313477 C-38.70703936 16.35387374 -36.28068738 15.2448173 -33.85379028 14.13694763 C-29.01621061 11.92744693 -24.18783204 9.69930775 -19.3671875 7.453125 C-17.69849609 6.67835815 -17.69849609 6.67835815 -15.99609375 5.88793945 C-13.96804787 4.94546288 -11.94188945 3.99891031 -9.91796875 3.04760742 C-9.03496094 2.63873291 -8.15195313 2.2298584 -7.2421875 1.80859375 C-6.4879248 1.45595459 -5.73366211 1.10331543 -4.95654297 0.73999023 C-3 0 -3 0 0 0 Z " fill="#000000" transform="translate(84,208)"/>
</svg>
